<?xml version="1.0" encoding="utf-8"?>
<!-- Generator: Adobe Illustrator 16.0.0, SVG Export Plug-In . SVG Version: 6.00 Build 0)  -->
<!DOCTYPE svg PUBLIC "-//W3C//DTD SVG 1.1//EN" "http://www.w3.org/Graphics/SVG/1.1/DTD/svg11.dtd">
<svg version="1.1" id="Layer_1" xmlns="http://www.w3.org/2000/svg" xmlns:xlink="http://www.w3.org/1999/xlink" x="0px" y="0px"
	 width="1125px" height="732px" viewBox="0 0 1125 732" enable-background="new 0 0 1125 732" xml:space="preserve">
<g transform="translate(300,300)" opacity="0.5">
	<linearGradient id="SVGID_1_" gradientUnits="userSpaceOnUse" x1="-169.0249" y1="70.2051" x2="686.1816" y2="70.2051">
		<stop  offset="0" style="stop-color:#FFFFFF;stop-opacity:0.1"/>
		<stop  offset="1" style="stop-color:#C1272D"/>
	</linearGradient>
	<path fill="url(#SVGID_1_)" d="M562.798-233.981c90.039,69.888,148.137,211.498,112.998,316.228
		c-35.137,104.935-163.508,172.99-296.271,242.268C246.762,393.791,109.606,464.084,6.989,427.002
		c-102.417-37.286-170.496-182.159-175.687-311.339c-5.19-129.182,52.107-242.877,128.572-309.506
		c76.663-66.831,172.292-86.596,281.297-97.395C350.178-302.036,472.559-303.871,562.798-233.981z"/>
</g>
<g>
	<ellipse fill="#AEE4ED" cx="1541.368" cy="447.184" rx="96.315" ry="12.698"/>
	<path fill="#AEE4ED" d="M2073.746,431.308c0,5.259-43.594,9.522-97.375,9.522c-53.774,0-97.372-4.264-97.372-9.522
		c0-5.264,43.598-9.527,97.372-9.527C2030.152,421.78,2073.746,426.044,2073.746,431.308z"/>
	<polygon fill="#30C5CC" points="1373.963,323.603 1362.498,323.603 1362.498,312.136 1355.343,312.136 1355.343,323.603 
		1343.877,323.603 1343.877,330.76 1355.343,330.76 1355.343,342.223 1362.498,342.223 1362.498,330.76 1373.963,330.76 	"/>
	<path fill="#3D9CFF" d="M1384.402,302.505c0,3.912-3.172,7.086-7.087,7.086s-7.088-3.174-7.088-7.086
		c0-3.917,3.173-7.092,7.088-7.092S1384.402,298.588,1384.402,302.505z"/>
	<path fill="#30C5CC" d="M1976.264,394.262h-539.502c-21.57,0-39.217-17.646-39.217-39.216V-61.853
		c0-21.57,17.646-39.217,39.217-39.217h539.502c21.567,0,39.218,17.647,39.218,39.217v416.899
		C2015.481,376.616,1997.831,394.262,1976.264,394.262z"/>
	<path fill="#0B9B9B" d="M1441.711,376.625c-14.076,0-25.488-11.414-25.488-25.492V-57.94c0-14.078,11.412-25.49,25.488-25.49
		h529.602c14.078,0,25.49,11.412,25.49,25.49v409.073c0,14.078-11.412,25.492-25.49,25.492H1441.711z"/>
	<path fill="#C6F4FF" d="M1965.12,363.321h-517.216c-9.094,0-16.467-7.372-16.467-16.466V-53.663
		c0-9.094,7.373-16.465,16.467-16.465h517.216c9.093,0,16.465,7.371,16.465,16.465v400.519
		C1981.585,355.949,1974.213,363.321,1965.12,363.321z"/>
	<path fill="#0B9B9B" d="M1360.447,362.359c12.4,20.439,34.87,34.17,60.394,34.17h571.342c25.523,0,47.994-13.73,60.395-34.17
		H1360.447z"/>
	<path fill="#30C5CC" d="M1367.834,372.389h677.356c2.74-3.12,5.223-6.465,7.387-10.029h-692.13
		C1362.609,365.924,1365.096,369.269,1367.834,372.389z"/>
	<rect x="1474.69" y="187.522" fill="#DB5A28" width="153.819" height="86.079"/>
	<g>
		<rect x="1625.148" y="-32.836" fill="#30C5CC" width="57.864" height="7.972"/>
		<rect x="1550.326" y="-32.836" fill="#30C5CC" width="35.326" height="7.972"/>
		<rect x="1469.668" y="-32.836" fill="#30C5CC" width="69.984" height="7.972"/>
		<rect x="1596.711" y="-32.836" fill="#30C5CC" width="15.177" height="7.972"/>
		<rect x="1697.736" y="-32.836" fill="#30C5CC" width="35.203" height="7.972"/>
	</g>
	<g>
		<rect x="1625.148" y="-9.551" fill="#30C5CC" width="21.708" height="7.971"/>
		<rect x="1655.488" y="-9.551" fill="#30C5CC" width="21.708" height="7.971"/>
		<rect x="1514.34" y="-9.551" fill="#30C5CC" width="35.326" height="7.971"/>
		<rect x="1469.668" y="-9.551" fill="#30C5CC" width="34.656" height="7.971"/>
		<rect x="1559.361" y="-9.551" fill="#30C5CC" width="58.172" height="7.971"/>
	</g>
	<g>
		<path fill="#2F2F8E" d="M1571.709,432.55c-3.658-11.736-10.759-61.408-12.348-80.858c-0.336-4.123-45.6-21.801-45.6-21.801
			c-26.498-0.673-40.133,9.717-40.133,9.717l63.622,21.492c0,28.694,24.462,71.97,24.462,71.97
			C1561.713,433.072,1571.709,432.55,1571.709,432.55z"/>
		<path fill="#4C49A2" d="M1517.129,366.799l-18.893,65.802l10.793,2.35c4.703-15.52,31.896-68.717,32.634-75.04
			c0.313-2.693,0.12-4.778-0.887-5.619c-1.015-0.85-31.509-19.072-40.367-21.065c-11.865-2.665-29.483-6.938-29.483-6.938
			s-9.932,10.39-7.998,27.286C1464.863,370.466,1517.129,366.799,1517.129,366.799z"/>
		<path fill="#FFFFFF" d="M1491.633,251.098c0,0-20.707,1.835-21.648,7.478c-0.939,5.645,9.88,41.371,9.88,41.371l-10.52,28.074
			c0,0,29.864,7.353,44.417,1.87c1.383,0.632,3.734-29.476,3.734-29.476l5.184-14.79l6.576,22.317l15.053,21.168l9.878-7.995
			l-10.97-19.282c0,0-16.979-38.744-21.488-43.258C1513.263,250.111,1491.633,251.098,1491.633,251.098z"/>
		<path fill="#E67750" d="M1508.045,252.587l-1.604-21.293h-15.525v19.891c-1.963,0.219,2.119,16.093,14.628,16.093
			C1505.544,267.277,1511.381,265.161,1508.045,252.587z"/>
		<path fill="#EFEFEF" d="M1476.58,288.658c1.809,6.42,3.284,11.288,3.284,11.288l-10.52,28.074c0,0,22.724,5.591,38.187,3.381
			c-1.381-1.016-19.715-13.368-20.611-18.757C1485.038,301.356,1476.58,288.658,1476.58,288.658z"/>
		<path fill="#FD9E71" d="M1521.867,209.798c-1.313-5.452-9.816-7.031-23.26-5.45c-9.141,1.074-11.197,9.489-11.451,15.743
			c-0.137,0.031-0.273,0.049-0.412,0.09c-3.156,0.968-5.404,4.039-5.23,7.375c0.087,1.708,0.688,3.264,1.813,4.53
			c1.188,1.933,3.213,3.232,5.531,3.527c0.648,0.083,1.286,0.053,1.912-0.036c3.807,7.922,10.789,17.795,20.587,16.617
			C1525.72,242.149,1521.867,209.798,1521.867,209.798z"/>
		<path fill="#201251" d="M1491.089,224.145c0,0-2.97-7.119,3.728-12.148c6.699-5.028,7.15,2.393,14.213,3.306
			c7.06,0.909,14.028,0.335,13.27,5.002c4.275-10.546-1.906-16.575-8.814-19.881c-6.906-3.302-17.725-4.73-25.24,1.542
			c-7.516,6.271-6.498,21.333-6.498,21.333C1486.7,220.902,1488.028,222.842,1491.089,224.145z"/>
		<path fill="#201251" d="M1488.244,201.965c0,0-6.24-16.758-18.058-12.609c-11.819,4.148-6.489,27.969-7.794,38.331
			s-8.729,10.815-11.395,6.21c-4.94,9.394,14.42,18.938,20.725,9.911c6.303-9.028,2.671-31.906,6.703-34.24
			c4.03-2.331,8.09,0.698,8.09,0.698L1488.244,201.965z"/>
		<path fill="#FFFFFF" d="M1470.455,256.696c-4.974,2.87-14.111,37.134-14.111,42.779c0,5.644,44.065,33.75,44.065,33.75
			s2.032-6.938,6.736-8.347c-0.938-0.474-32.926-31.049-32.926-31.049l8.467-23.966
			C1482.687,269.864,1482.687,249.641,1470.455,256.696z"/>
		<polygon fill="#30C5CC" points="1497.039,337.543 1541.957,336.169 1571.119,346.988 1521.75,349.607 		"/>
		<polygon fill="#0B9B9B" points="1521.75,349.607 1497.039,340.035 1497.039,337.543 1523.703,347.163 		"/>
		<polygon fill="#0B9B9B" points="1521.75,349.607 1536.596,309.073 1585.703,311.705 1571.119,347.93 		"/>
		
			<ellipse transform="matrix(-0.8944 -0.4472 0.4472 -0.8944 2799.8047 1318.5837)" fill="#30C5CC" cx="1555.54" cy="328.82" rx="4.058" ry="5.909"/>
		<path fill="#FD9E71" d="M1507.146,324.879c0,0,17.876,14.111,15.995,15.052c-1.882,0.94-9.878,0.94-14.111-1.412
			c-4.236-2.35-8.62-5.293-8.62-5.293S1501.971,325.348,1507.146,324.879z"/>
		<g>
			<path fill="#201251" d="M1509.499,431.66c3.173,3.216,13.969,8.089,19.286,9.407c5.702,1.412,4.703,6.199,0.536,6.199
				c-8.181,0-26.376-1.023-35.347-1.023c-1.41-4.234,1.02-9.896,3.875-13.709C1498.718,431.368,1509.043,431.2,1509.499,431.66z"/>
		</g>
		<g>
			<path fill="#201251" d="M1573.945,431.66c3.172,3.216,13.967,8.089,19.284,9.407c5.702,1.412,4.704,6.199,0.536,6.199
				c-8.18,0-26.377-1.023-35.346-1.023c-1.41-4.234,1.02-9.896,3.875-13.709C1563.163,431.368,1573.488,431.2,1573.945,431.66z"/>
		</g>
	</g>
	<g>
		<rect x="1475.521" y="154.06" fill="#31D0A8" width="43.135" height="11.886"/>
		<rect x="1585.374" y="154.06" fill="#31D0A8" width="43.136" height="11.886"/>
		<rect x="1530.448" y="154.06" fill="#31D0A8" width="43.136" height="11.886"/>
	</g>
	<g>
		
			<rect x="1624.665" y="-59.181" transform="matrix(0.9712 -0.2381 0.2381 0.9712 56.613 402.6971)" fill="#FEBA40" width="140.732" height="52.427"/>
		
			<rect x="1628.735" y="-48.982" transform="matrix(0.9712 -0.2381 0.2381 0.9712 59.1498 398.9045)" fill="#FEDB9B" width="103.66" height="7.249"/>
		
			<rect x="1632.047" y="-34.44" transform="matrix(0.9712 -0.2381 0.2381 0.9712 55.5359 398.0786)" fill="#FEDB9B" width="86.618" height="7.248"/>
		
			<rect x="1636.063" y="-15.314" transform="matrix(0.9712 -0.2381 0.2381 0.9712 50.4448 394.1761)" fill="#FEDB9B" width="41.097" height="7.248"/>
		
			<rect x="1721.295" y="-48.21" transform="matrix(0.9712 -0.2381 0.2381 0.9712 60.4492 411.2257)" fill="#FFFFFF" width="22.01" height="7.244"/>
	</g>
	<rect x="1473.895" y="15.692" fill="#FFFFFF" width="153.514" height="125.266"/>
	<g>
		<rect x="1638.902" y="87.94" fill="#4CB0DD" width="301.899" height="56.492"/>
		<rect x="1850.069" y="96.117" fill="#FFFFFF" width="81.698" height="40.141"/>
		<rect x="1649.941" y="98.551" fill="#75D5EF" width="188.838" height="7.743"/>
		<rect x="1649.941" y="112.316" fill="#75D5EF" width="188.838" height="7.742"/>
		<rect x="1649.941" y="126.082" fill="#75D5EF" width="127.133" height="7.741"/>
	</g>
	<g>
		<g>
			<rect x="1638.971" y="184.787" fill="#FFFFFF" width="290.128" height="136.126"/>
			<rect x="1638.971" y="184.787" fill="#FDBE44" width="290.128" height="22.569"/>
			<rect x="1646.007" y="239.449" fill="#98DBE5" width="167.531" height="11.491"/>
			<rect x="1646.007" y="259.876" fill="#98DBE5" width="150.236" height="11.492"/>
			<rect x="1646.007" y="280.304" fill="#98DBE5" width="101.326" height="11.492"/>
			<rect x="1646.007" y="220.631" fill="#98DBE5" width="60.388" height="11.49"/>
		</g>
		<g>
			<rect x="1829.854" y="220.071" fill="#86D2E8" width="87.626" height="87.625"/>
			<path fill="#F6FFFA" d="M1882.624,263.312c1.377-1.856,2.202-4.148,2.202-6.635v-6.693c0-6.164-4.994-11.16-11.161-11.16
				c-6.162,0-11.157,4.996-11.157,11.16v6.693c0,2.616,0.904,5.02,2.413,6.922c-10.237,3.605-17.578,13.357-17.576,24.827h55.186
				C1902.53,288.426,1900.396,268.464,1882.624,263.312z"/>
		</g>
		<g>
			<circle fill="#DB5A28" cx="1653.962" cy="196.638" r="5.694"/>
			<circle fill="#FFE780" cx="1672.208" cy="196.638" r="5.694"/>
			<circle fill="#1FB288" cx="1693.376" cy="196.638" r="5.694"/>
		</g>
	</g>
	<rect x="1830.313" y="-38.271" fill="#DB5A28" width="101.608" height="101.606"/>
	<g>
		<path fill="#9E472D" d="M1972.576,413.099c0,0,0.879,2.672-7.319,6.41c-8.197,3.742-16.85,2.42-18.973,5.562
			c-2.121,3.142-2.618,6.116-2.618,6.116h46.636c0,0-0.354-12.875-5.633-18.591C1985.34,413.822,1972.576,413.099,1972.576,413.099z
			"/>
		<path fill="#9E472D" d="M2023.368,413.077c0,0,0.846,2.569-7.037,6.167s-16.2,2.324-18.242,5.346
			c-2.039,3.021-2.521,5.884-2.521,5.884h44.842c0,0-0.34-12.382-5.417-17.878C2035.64,413.777,2023.368,413.077,2023.368,413.077z"
			/>
		<g>
			<polygon fill="#FFFFFF" points="1963.389,167.87 1929.526,173.823 1905.714,122.845 1942.178,119.87 			"/>
		</g>
		<g>
			<path fill="#262845" d="M1921.108,162.717c0.008-0.004,0.018-0.007,0.029-0.004
				C1921.022,162.765,1921.005,162.769,1921.108,162.717z"/>
		</g>
		<path fill="#FD9E71" d="M1986.828,72.241c0,0-4.463,8.93-4.463,17.117c0,5.722,0.724,13.99,1.163,18.448
			c0.158,1.622,1.763,2.691,3.32,2.211l6.677-2.054l-0.372,9.675l18.631-0.323l4.065-39.12
			C2015.85,78.194,2000.223,61.078,1986.828,72.241z"/>
		<path fill="#201251" d="M1988.233,92.78c0,0,1.048-7.747,6.892-6.143c5.844,1.604-0.854,9.417-0.854,9.417l5.582,10.047
			c4.086,1.48,8.603,1.588,13.021-0.372c0,0,6.204-18.854,6.204-24.807s-5.429-9.974-5.429-9.974s-14.542-7.266-22.358-6.894
			c-7.812,0.372-8.559,8.186-8.559,8.186s-2.975,5.953,0,8.558C1985.713,83.403,1988.233,92.78,1988.233,92.78z"/>
		<path fill="#6AA5CC" d="M2012.625,111.931l-0.841,5.383l-19.25,0.074C1992.534,117.388,1996.256,111.435,2012.625,111.931z"/>
		<path fill="#FD9E71" d="M1930.271,160.057c0,0,1.348-4.221-4.094-6.699c0.14-0.989-1.091-5.929-2.234-7.07
			c-1.144-1.14-1.86,5.209-1.86,5.209s-5.33-9.488-6.698-7.067c-1.367,2.418,12.031,21.084,12.404,21.829
			S1930.271,160.057,1930.271,160.057z"/>
		<path fill="#201251" d="M1980.38,221.327l-12.901,109.146l2.619,84.608l16.233-1.159c0,0,4.592-44.501,4.96-55.666
			c0.373-11.161-2.975-28.281-2.975-28.281l16.373-67.471l2.724,0.496l0.749,66.482l14.912,84.439l13.651,0.654
			c0,0,0.335-43.545-0.78-54.335c-1.119-10.791-6.944-32.371-6.944-32.371l5.951-68.84c0,0,5.953-18.105-4.714-38.448
			C2028.875,220.707,1980.38,221.327,1980.38,221.327z"/>
		<path fill="#96C4EA" d="M1992.534,117.388c0,0-23.071,7.442-27.289,11.659c-4.215,4.217-16.308,47.685-16.308,47.685
			l-18.227-18.265l-5.648,13.248c0,0,21.329,31.752,28.027,32.745c6.701,0.99,21.831-40.187,21.831-40.187
			s1.372,22.492,3.972,33.735c2.975,12.899,1.487,23.318,1.487,23.318c20.643,3.749,38.201,2.978,49.858-0.744l5.778-43.336
			c0,0,7.865,0.917,10.348-1.812c2.479-2.729-8.931-47.627-11.412-51.101c-2.479-3.473-23.168-7.021-23.168-7.021L1992.534,117.388z
			"/>
		<path fill="#6AA5CC" d="M2014.997,147.185c-0.126-0.881-1.579-0.667-1.547,0.207c0.692,18.652,0.063,36.833-2.867,55.297
			c-0.195,1.239,1.649,1.805,1.923,0.531C2016.463,184.964,2017.599,165.713,2014.997,147.185z"/>
		<path fill="#6AA5CC" d="M2036.169,160.999c-0.123-0.621-1.069-0.458-1.081,0.147c-0.198,10.898-1.546,21.315-3.614,32.017
			c-1.836,9.507-3.518,19.025-2.9,28.749c0.087,1.358,2.192,1.379,2.134,0c-0.472-11.229,1.812-22.071,3.854-33.047
			C2036.262,179.75,2038.01,170.222,2036.169,160.999z"/>
		<path fill="#6AA5CC" d="M1977.035,160.668c-6.195,3.937-8.521,11.644-10.896,18.2c-3.207,8.868-6.411,17.583-13.397,24.239
			c-1.041,0.989,0.513,2.521,1.57,1.567c12.896-11.61,12.283-30.59,23.282-43.279
			C1977.923,161.018,1977.504,160.369,1977.035,160.668z"/>
		<path fill="#9E472D" d="M2030.487,217.359c0,0-31.255,3.968-50.107-1.985c0.492,0,0,5.953,0,5.953s24.032,9.018,51.596,1.984
			C2031.756,223.226,2030.487,217.359,2030.487,217.359z"/>
	</g>
	<g>
		<path fill="#1A133A" d="M1707.068,344.397c0,0-2.588,5.646-7.057,6.587c-4.469,0.939-16.229,3.531-18.111,5.176
			c-1.883,1.646-1.883,5.88-1.883,5.88h37.33c0,0-0.066-11.301-2.234-17.179C1716.005,344.871,1707.068,344.397,1707.068,344.397z"
			/>
		<path fill="#1A133A" d="M1779.039,344.397c0,0-2.588,5.646-7.056,6.587c-4.47,0.939-16.229,3.531-18.11,5.176
			c-1.881,1.646-1.881,5.88-1.881,5.88h37.326c0,0-0.066-11.301-2.233-17.179C1787.976,344.871,1779.039,344.397,1779.039,344.397z"
			/>
		<path fill="#E79673" d="M1774.463-22.466c0,0-10.397-2.652-11.025-0.997c-0.627,1.655,16.072,6.595,16.072,6.595l15.037,41.696
			l-5.63,13.341l10.351,11.289c0,0,11.288-15.287,12.229-19.756c0.939-4.469-26.813-49.393-26.813-49.393s-5.508-17.503-6.35-18.345
			c-0.843-0.842-10.785-0.313-13.037-0.275c-2.252,0.04,6.555,8.954,6.555,8.954L1774.463-22.466z"/>
		<path fill="#E79673" d="M1734.014,8.399c0,0-4.954,6.955-6.013,14.364c-1.06,7.409,0.352,14.465,0.352,14.465l9.093-0.301v8.506
			h18.072c0,0,0.355-6.442,1.061-9.969c0.705-3.529,5.644-10.232,5.644-10.232l-8.114-22.932l-11.642-1.058L1734.014,8.399z"/>
		<path fill="#201251" d="M1738.586,19.235c0,0,3.174-7.409,7.055-4.587c3.881,2.823-1.06,8.82-1.06,8.82s2.471,10.232,6.704,11.644
			c4.232,1.411,4.232,1.411,4.232,1.411s10.938-10.231,12.703-13.055c1.763-2.822-2.822-19.051-5.999-22.578
			c-3.175-3.528-16.933-3.176-17.993-4.94c-1.059-1.764-4.587-4.94-8.113-3.528c-3.529,1.412-2.822,13.055-2.822,13.055
			s4.361,3.754,4.649,6.464c0.288,2.708-1.729,6.297-1.729,6.297L1738.586,19.235z"/>
		<path fill="#201251" d="M1721.492,45.977c0,0,18.033-2.633,28.382-2.869c10.349-0.235,26.813,5.174,26.813,5.174l11.983-12.829
			l15.261,14.345c0,0-12.99,19.175-17.179,23.647c-4.185,4.472-7.243,25.405-8.185,31.755c-0.94,6.35-3.293,43.512-3.293,43.512
			s-11.055,13.171-56.448-1.177c-0.47-0.47,1.882-27.284,1.647-33.868c-0.236-6.586-6.117-28.93-7.291-34.34
			c-1.178-5.41-19.931-16.234-19.931-16.234s-2.316-13.179,6.337-19.523C1700.717,44.284,1721.492,45.977,1721.492,45.977z"/>
		<path fill="#E79673" d="M1679.549-7.931c0,0-6.82,6.351-7.291,8.938c-0.47,2.588,9.385,32.058,9.385,32.058l17.947,10.507
			l-6.337,19.523c0,0-19.584-13.637-22.405-17.635c-2.822-3.999-7.763-43.983-7.763-43.983s-6.351-7.997-6.821-10.113
			s-1.95-9.039-0.858-10.4c1.095-1.36,8.372-8.891,9.437-6.655c1.066,2.237,4.982,18.528,4.982,18.528
			S1677.902-10.753,1679.549-7.931z"/>
		<path fill="#4C49A2" d="M1718.827,147.537l-10.229,96.432l-5.293,102.312l17.641,0.708c0,0,10.938-67.883,11.113-78.219
			c0.176-10.335-0.178-22.683-0.178-22.683l11.289-51.509h6.352l13.053,67.031l13.406,83.262l14.113,0.705
			c0,0,2.115-51.861,0-62.447c-2.118-10.584-5.292-20.814-5.292-20.814l-6.352-69.499c0,0,5.645-24.698-3.175-44.102
			C1773.512,145.185,1718.827,147.537,1718.827,147.537z"/>
	</g>
	<polygon fill="#FDBE44" points="1611.046,37.835 1599.58,37.835 1599.58,26.369 1592.426,26.369 1592.426,37.835 1580.959,37.835 
		1580.959,44.989 1592.426,44.989 1592.426,56.456 1599.58,56.456 1599.58,44.989 1611.046,44.989 	"/>
	<path fill="#30C5CC" d="M1504.324,126.316c-9.885,0-17.932-8.042-17.932-17.926c0-9.885,8.047-17.927,17.932-17.927
		s17.927,8.042,17.927,17.927C1522.251,118.275,1514.209,126.316,1504.324,126.316z M1504.324,99.819
		c-4.73,0-8.575,3.844-8.575,8.571c0,4.726,3.845,8.571,8.575,8.571c4.722,0,8.572-3.846,8.572-8.571
		C1512.896,103.663,1509.046,99.819,1504.324,99.819z"/>
	<polygon fill="#30C5CC" points="2055.576,-38.37 2044.11,-38.37 2044.11,-49.835 2036.956,-49.835 2036.956,-38.37 
		2025.489,-38.37 2025.489,-31.215 2036.956,-31.215 2036.956,-19.75 2044.11,-19.75 2044.11,-31.215 2055.576,-31.215 	"/>
	<path fill="#3D9CFF" d="M1998.279-116.625c0,3.912-3.176,7.087-7.088,7.087c-3.915,0-7.09-3.175-7.09-7.087
		c0-3.916,3.175-7.091,7.09-7.091C1995.104-123.715,1998.279-120.54,1998.279-116.625z"/>
	<path fill="#FEBA40" d="M1859.948,7.774c-9.885,0-17.932-8.04-17.932-17.926c0-9.885,8.047-17.925,17.932-17.925
		c9.884,0,17.928,8.041,17.928,17.925C1877.876-0.266,1869.832,7.774,1859.948,7.774z M1859.948-18.722
		c-4.729,0-8.575,3.845-8.575,8.57c0,4.726,3.846,8.572,8.575,8.572c4.725,0,8.57-3.846,8.57-8.572
		C1868.519-14.877,1864.673-18.722,1859.948-18.722z"/>
	<path fill="#FEBA40" d="M1955.203-110.767c-9.883,0-17.932-8.041-17.932-17.926c0-9.885,8.049-17.926,17.932-17.926
		c9.89,0,17.929,8.042,17.929,17.926C1973.132-118.807,1965.093-110.767,1955.203-110.767z M1955.203-137.264
		c-4.728,0-8.574,3.845-8.574,8.571c0,4.726,3.847,8.571,8.574,8.571c4.725,0,8.571-3.846,8.571-8.571
		C1963.774-133.419,1959.928-137.264,1955.203-137.264z"/>
</g>
<path fill-rule="evenodd" clip-rule="evenodd" fill="#E2E2E2" d="M723.499,599.958c20.209,1.895,40.244,4.784,59.611,11.114
	c3.701,1.209,8.674,2.583,8.594,7.14c-0.073,4.165-4.869,5.517-8.416,6.757c-13.042,4.563-26.612,6.918-40.231,8.859
	c-13.945,1.988-27.931,3.728-41.929,5.313c-9.165,1.038-18.375,1.711-27.578,2.362c-21.303,1.506-42.609,2.971-63.925,4.299
	c-7.775,0.484-15.601,0.755-23.355,0.92c-16.888,0.361-33.788,0.992-50.641,1.685c-18.908,0.777-37.812-0.069-56.673,0.892
	c-40.911,2.082-81.843,1.071-122.743,0.615c-18.329-0.205-36.71,0.125-55.026-0.854c-20.115-1.074-40.245-1.391-60.362-2.162
	c-20.09-0.769-40.197-1.654-60.223-3.355c-22.872-1.94-45.785-3.413-68.596-6.217c-20.471-2.515-40.932-4.845-60.939-10.042
	c-4.218-1.096-8.45-2.291-12.19-4.612c-5.009-3.107-5.038-6.367,0.124-9.315c6.87-3.924,14.628-5.312,22.242-6.965
	c11.484-2.493,23.017-4.739,34.798-5.318c2.003,1.824,1.681,4.292,1.729,6.604c0.119,5.799-0.037,11.602,0.083,17.4
	c0.053,2.514,0.443,4.804,3.796,4.745c3.345-0.06,3.646-2.41,3.689-4.885c0.113-6.345-0.014-12.689,0.068-19.033
	c0.033-2.513-0.237-5.118,1.461-7.317c5.579-2.623,11.685-2.291,17.578-2.973c9.541-1.104,19.123-1.878,28.696-2.674
	c7.873-0.654,7.916-0.468,7.922-8.617c0.018-24.493-0.006-48.986,0.021-73.479c0.002-2.707-0.271-5.457,0.742-8.083
	c0.312-0.668,0.818-1.119,1.513-1.361c0.687,0.259,1.183,0.723,1.492,1.386c1.075,2.802,0.762,5.737,0.764,8.628
	c0.028,27.621-0.073,55.241,0.14,82.861c0.024,3.062-2.348,8.808,3.154,8.656c5.146-0.142,2.943-5.788,2.966-8.949
	c0.195-27.619,0.095-55.24,0.135-82.86c0.005-3.052-0.47-6.209,1.199-9.06c0.506-0.607,1.115-0.734,1.824-0.385
	c1.949,2.544,1.472,5.551,1.478,8.413c0.049,24.382,0.012,48.763,0.034,73.144c0.007,7.551,0.046,7.658,7.522,7.403
	c10.713-0.366,21.413-1.008,32.098-1.924c5.074-0.436,10.172-0.507,15.247,0.087c4.096,0.956,4.64,4.714,5.801,7.78
	c1.736,4.581,3.516,8.994,8.202,11.405c1.217,3.058,1.238,6.112-0.012,9.165c-0.997,1.37-2.442,1.487-3.951,1.411
	c-2.735-1.15-6.654,0.659-8.234-3.824c-0.241,1.831,0.149,3.082,0.145,4.354c-0.019,2.989-0.32,5.649-4.434,3.645
	c-0.625-0.174-1.249-0.132-1.862,0.091c-1.226,0.531-2.205,1.475-3.419,2.029c-0.444,0.196-0.899,0.344-1.366,0.472
	c-6.12,2.053-12.272,4.027-17.807,9.173c3.547,0.99,6.574-0.253,9.399,0.445c2.237,0.497,4.5,1.398,6.592-0.436
	c0.664-0.331,1.368-0.488,2.103-0.524c0.489-0.014,0.975,0.023,1.458,0.081c2.218,0.335,4.277-0.389,6.356-0.974
	c0.466-0.151,0.942-0.254,1.424-0.336c1.439-0.183,2.883-0.342,4.258-0.853c1.896-0.507,3.659-1.357,5.465-2.097
	c2.561-0.704,5.34-0.675,7.636-2.276c0.639-0.397,1.322-0.675,2.078-0.751c2.607-0.453,6.473,0.779,5.624-4.245
	c-0.341-1.517-0.744-3.013-1.137-4.517c-0.357-1.923-0.522-3.83,0.471-5.635c2.009-1.716,3.681,0.337,5.52,0.53
	c2.537,0.268,4.674-0.359,6.194-2.438c1.402-1.916,1.683-4.251,0.347-6.1c-2.484-3.439-3.2-6.677-0.63-10.363
	c2.838-4.069,6.302-6.86,11.595-6.471c4.05,5.051,3.817,11.512,5.558,17.31c0.971,3.232,2.358,5.57,5.58,6.673
	c2.582,3.001,2,6.352,1.097,9.742c-1.024,1.748-2.724,2.113-4.551,2.207c-2.345-1.757-6.998,0.787-7.439-5.027
	c-0.693,2.511-0.024,4.117-0.355,5.704c-0.759,2.746-3.161,3.227-5.401,3.936c-1.447,0.407-2.708,1.222-4.035,1.895
	c-6.989,1.189-12.985,4.295-19.416,9.339c7.678,1.479,13.517-2.865,19.771-1.328c2.781,1.461,4.944-0.545,7.324-1.327
	c0.45-0.206,0.917-0.344,1.402-0.427c2.788,0.088,5.315-0.804,7.746-2.063c0.724-0.268,1.472-0.415,2.236-0.49
	c2.805,0.032,5.457-0.691,8.057-1.646c1.994-1.078,5.445,0.236,5.767-3.557c-0.152-2.073-0.48-4.104-1.011-6.111
	c-0.172-3.785-1.449-7.512-0.591-11.351c0.936-1.455,2.174-2.128,3.909-1.509c3.81,3.208,6.827,3.628,8.884,0.885
	c2.59-3.454,1.45-6.518-1.711-8.977c-3.996-3.108-3.496-7.332-2.824-11.496c0.427-2.646,2.696-3.286,4.988-3.336
	c9.462-0.201,18.938-0.468,28.383,0.113c5.462,0.338,9.281,3.86,12.271,8.192c1.336,1.936,1.559,4.053-0.073,6.064
	c-0.687,0.847-1.415,1.67-1.943,2.632c-1.657,3.016-1.197,5.691,1.618,7.663c2.558,1.792,5.271,1.611,7.413-0.695
	c2.363-2.546,2.395-6.066-0.218-7.752c-5.282-3.409-6.785-9.781-11.666-13.37c-2.908-2.139-1.242-3.683,1.163-4.631
	c1.71-0.676,3.588-0.523,5.407-0.524c32.765-0.014,65.53-0.026,98.295,0.022c2.458,0.003,5.119-0.432,7.738,2.342
	c-7.45,3.394-9.692,11.325-15.379,16.319c-2.514,2.207-2.456,5.321-0.031,7.77c2.183,2.206,5.002,2.36,7.482,0.563
	c2.8-2.028,3.035-4.85,1.219-7.712c-1.498-2.361-4.478-4.191-2.713-7.629c1.869-3.639,4.563-6.398,8.421-8.101
	c2.959-1.305,5.981-1.393,9.073-1.396c6.007-0.004,12.015-0.088,18.02,0.041c2.638,0.058,6.224-0.565,6.927,2.814
	c0.742,3.565,1.685,7.634-1.486,10.849c-1.146,1.161-2.557,2.098-3.224,3.655c-1.17,2.736-1.269,5.478,1.246,7.448
	c2.469,1.937,5.168,1.632,7.427-0.538c2.322-2.231,2.555-5.073,0.523-7.369c-2.795-3.158-4.253-6.379-4.181-10.749
	c0.077-4.62,2.111-6.175,6.294-6.132c5.276,0.055,10.552-0.115,15.832-0.085c4.596,4.933,4.956,11.146,4.919,17.34
	c-0.016,2.667-0.47,5.318,0.258,7.95c1.042,4.821-0.135,9.813,1.062,14.602c0.332,0.29,0.518,0.173,0.593-0.326
	c1.344-8.944,1.553-9.003,8.436-3.711c7.757,5.962,16.742,6.821,25.923,5.23c3.675-0.638,7.015-1.077,10.646-0.018
	c3.695,1.079,7.576,0.669,11.384,0.439c1.06-0.063,2.307-0.243,2.479-1.607c0.129-1.023-0.773-1.569-1.534-2.065
	c-0.608-0.396-1.271-0.727-1.967-0.93c-10.852-3.166-16.096-11.746-20.48-21.175c0.147-4.64,2.724-8.403,4.541-12.429
	c0.692-1.534,2.047-2.454,3.887-2.345c22.177,0.077,44.268,1.806,66.389,3.019c17.15,0.938,13.612,1.646,13.749-12.321
	c0.222-22.544,0.039-45.092,0.082-67.638c0.006-2.871-0.433-5.855,1.296-8.485c0.591-0.54,1.203-0.563,1.836-0.073
	c1.893,2.784,1.359,5.967,1.363,9.016c0.047,27.859,0.022,55.72,0.032,83.58c0.001,2.181-0.119,4.373,0.387,6.526
	c0.398,1.693,1.521,2.396,3.189,2.301c1.512-0.087,2.233-1.02,2.494-2.422c0.366-1.986,0.277-3.993,0.277-5.994
	c0.007-27.677-0.007-55.354,0.018-83.032c0.002-2.902-0.261-5.835,0.586-8.689c0.253-0.678,0.664-1.239,1.223-1.692
	c0.77-0.119,1.349,0.16,1.739,0.832c1.322,2.747,0.958,5.701,0.963,8.589c0.035,24.377-0.001,48.754,0.029,73.131
	c0.01,8.252,0.396,8.325,8.526,8.912c12.324,0.89,24.639,1.981,36.92,3.386c1.093,0.125,2.144,0.408,3.067,1.039
	c1.795,1.911,1.626,4.342,1.66,6.678c0.088,5.986-0.141,11.982,0.104,17.961c0.122,2.948-1.34,7.427,3.672,7.619
	c5.38,0.207,3.598-4.464,3.761-7.308c0.297-5.247,0.009-10.522,0.124-15.782C721.715,604.198,721.36,601.707,723.499,599.958z"/>
<path fill-rule="evenodd" clip-rule="evenodd" fill="#9B5A8F" d="M412.544,201.336c-11.054-6.439-21.134-12.228-31.118-18.177
	c-3.222-1.919-6.455-2.815-10.271-2.792c-24.4,0.147-48.802,0.084-73.204,0.071c-13.735-0.007-21.527-7.877-21.534-21.733
	c-0.01-20.031-0.024-40.063,0.005-60.093c0.019-12.73,8.083-20.859,20.753-20.865c55.723-0.022,111.445-0.022,167.168,0
	c12.668,0.005,20.732,8.134,20.751,20.865c0.03,20.213,0.023,40.426,0.003,60.64c-0.014,13.12-7.977,21.163-20.986,21.183
	c-18.028,0.027-36.057,0.082-54.083-0.056c-3.607-0.027-4.884,0.502-3.269,4.379C408.841,189.754,410.361,194.984,412.544,201.336z"
	/>
<path fill-rule="evenodd" clip-rule="evenodd" fill="#75C7E2" d="M739.196,166.347c15.112-0.001,30.225-0.021,45.336,0.006
	c12.187,0.021,18.508,6.339,18.519,18.468c0.013,13.837,0.033,27.675-0.007,41.512c-0.031,10.75-6.587,17.346-17.326,17.422
	c-8.739,0.062-17.492,0.294-26.213-0.106c-4.322-0.198-6.675,1.363-8.549,5.008c-2.576,5.008-5.616,9.776-8.339,14.711
	c-1.408,2.553-2.497,2.67-4.145,0.155c-3.389-5.171-7.059-10.158-10.412-15.35c-1.553-2.404-3.361-3.332-6.261-3.281
	c-10.011,0.174-20.026,0.117-30.04,0.051c-9.824-0.064-16.416-6.563-16.489-16.442c-0.109-14.929-0.067-29.86-0.016-44.79
	c0.036-10.512,6.833-17.284,17.514-17.344C708.243,166.283,723.721,166.347,739.196,166.347z"/>
<path fill-rule="evenodd" clip-rule="evenodd" fill="#5A7A96" d="M74.247,423.016c-1.275-4.409-1.473-8.808,0.134-13.188
	c1.732-0.847,3.583-0.437,5.375-0.443c11.28-0.041,22.566-0.236,33.841,0.024c22.542,0.521,45.039-1.117,67.564-1.166
	c18.83-0.238,37.662-0.034,56.494-0.106c3.439-0.013,6.884,0.083,10.286-0.58c9.775-0.533,19.55-1.301,29.287,0.603
	c2.312,0.452,4.711,0.178,7.071,0.194c19.609,0.138,39.22-0.271,58.829,0.215c0.341,0.076,0.683,0.154,1.023,0.233
	c13.974,0.228,27.947,0.634,41.921,0.647c29.986,0.03,59.971-0.152,89.957-0.21c2.409-0.005,4.787,0.211,5.631-2.805
	c0.945,0.243,1.76,0.761,2.609,1.21c2.24,1.082,4.635,0.604,6.966,0.712c22.092,1.019,44.121-1.654,66.208-1.152
	c22.111-0.075,44.224-0.688,66.331,0.305c2.104,0.598,4.245,0.777,6.437,0.862c36.946,1.418,73.908,0.934,110.866,1.013
	c1.596,0.004,3.275-0.433,4.777,0.531c1.396,13.852,1.396,13.83-12.262,13.866c-3.444,0.009-6.887,0.199-10.33,0.307
	c-7.998,1.382-8.338,6.889-8.204,13.6c0.371,18.563,0.204,37.137,0.057,55.706c-0.021,2.636,0.968,6.004-2.873,7.273
	c-1.508-1.606-1.558-3.648-1.563-5.641c-0.031-9.277-0.23-18.556,0.085-27.829c-0.08-4.049-0.162-8.101,0.031-12.149
	c-0.061-2.953,0.127-5.907,0.048-8.863c-0.011-1.644-0.015-3.286-0.011-4.932c-0.062-3.675-0.236-7.348-0.068-11.024
	c0.082-2.64-1.12-4.071-3.827-4.194c-0.905-0.04-1.809-0.164-2.717-0.166c-40.304-0.056-80.609,0.032-120.916-0.065
	c-50.543,0.063-101.084,0.249-151.625-0.081c-3.272-0.021-6.544-0.157-9.814,0.04c-22.604,0.328-45.208-0.045-67.812,0.008
	c-25.659,0.221-51.319,0.079-76.979,0.093c-52.052,0.027-104.103,0.008-156.155,0.009c-1.82,0-3.641-0.037-5.46,0.022
	c-5.946,0.194-6.567,0.704-6.595,6.673c-0.088,19.292-0.017,38.584-0.043,57.876c-0.004,2.907,0.17,5.827-0.326,8.72
	c-0.163,0.706-0.441,1.366-0.815,1.984c-0.474,0.682-1.073,0.81-1.788,0.39c-2.112-2.463-1.606-5.477-1.615-8.324
	c-0.058-19.224-0.023-38.448-0.03-57.673c-0.004-9.149-2.773-11.792-12.153-12.034C86.145,423.352,80.166,424.179,74.247,423.016z"
	/>
<path fill-rule="evenodd" clip-rule="evenodd" fill="#75C7E2" d="M98.098,164.056c15.458,0,30.917-0.038,46.376,0.013
	c10.459,0.034,17.117,6.579,17.171,16.937c0.075,14.186,0.059,28.371,0.006,42.557c-0.041,10.979-6.528,17.625-17.652,17.858
	c-9.089,0.19-18.19,0.197-27.277-0.04c-3.417-0.088-5.256,1.115-6.77,4.096c-2.546,5.015-5.76,9.692-8.278,14.719
	c-2.022,4.037-3.281,3.296-5.253,0.034c-2.158-3.569-5.117-6.695-6.987-10.389c-3.037-5.998-7.488-7.776-14.028-7.305
	c-8.142,0.585-16.358,0.195-24.542,0.125c-10.375-0.089-16.962-6.713-16.998-17.124c-0.052-14.913-0.07-29.826,0.007-44.739
	c0.053-10.187,6.555-16.675,16.757-16.723C66.453,164.001,82.276,164.056,98.098,164.056z"/>
<path fill-rule="evenodd" clip-rule="evenodd" fill="#238BAD" d="M248.024,408.837c-1.474,1.564-3.4,0.989-5.147,0.991
	c-20.509,0.023-41.018-0.002-61.527-0.014c-7.331-1.061-14.704-0.2-22.051-0.487c-1.924-0.075-4.045,0.493-5.391-1.574
	c-2.582-1.212-3.43-3.611-4.094-6.09c-5.012-18.726-10.04-37.445-14.979-56.189c-2.158-8.188,1.68-13.091,10.19-13.103
	c24.578-0.034,49.155-0.027,73.733-0.002c7.124,0.007,9.758,2.078,11.629,8.955c0.991,3.646,1.456,7.446,3.218,10.863
	c4.137,6.774,4.728,14.67,6.987,22.038c0.279,1.937,1.023,3.768,1.336,5.696c1.551,4.673,2.678,9.461,3.891,14.226
	c0.56,2.599,1.194,5.181,1.923,7.74c0.169,0.509,0.292,1.028,0.401,1.551C248.309,405.24,249.415,407.069,248.024,408.837z"/>
<path fill-rule="evenodd" clip-rule="evenodd" fill="#238BAD" d="M623.887,408.893c-22.218-0.025-44.436-0.05-66.653-0.075
	c-1.572-2.267-0.161-4.489,0.081-6.732c4.605-17.238,8.998-34.532,13.788-51.716c0.705-1.986,1.134-4.018,0.892-6.148
	c0.509-1.771,1.227-3.404,2.954-4.349c2.074-5.488,6.103-7.531,11.877-7.5c24.334,0.134,48.668,0.026,73.002,0.073
	c8.903,0.017,12.352,4.637,10.061,13.407c-4.764,18.231-9.572,36.452-14.421,54.661c-0.736,2.769-1.34,5.725-4.326,7.187
	c-0.56,1.024-1.4,1.634-2.587,1.604C640.333,409.096,632.096,409.867,623.887,408.893z"/>
<path fill-rule="evenodd" clip-rule="evenodd" fill="#231017" d="M484.897,380.645c-13.542-8.22-24.813-18.533-29.622-34.184
	c-5.598-18.218-2.261-34.486,11.944-47.821c5.032-4.724,10.348-9.151,15.615-13.618c8.689-7.368,14.553-16.408,15.051-27.964
	c1.007-23.328,29.332-45.812,60.724-29.958c8.835,4.462,16.001,10.673,19.385,20.387c2.068,5.935,0.77,11.614-2.073,16.813
	c-5.721,10.466-5.839,20.897-1.725,31.97c3.154,8.488,3.743,17.11-3.796,24.176c-1.66,0.588-2.808-0.461-3.703-1.478
	c-3.74-4.247-8.784-5.835-13.992-7.142c-2.714-0.765-5.396-1.708-8.296-1.439c-1.476-0.122-2.896-0.489-4.109-1.335
	c-3.122-2.175-2.987-5.328,0.586-6.449c11.242-3.529,16.261-12.158,19.15-22.611c1.939-7.012,3.477-14.121,4.875-21.265
	c0.77-3.925-0.231-6.075-4.538-5.822c-5.091,0.298-9.66-1.354-14.079-3.652c-2.265-1.177-4.656-2.055-7.107-2.772
	c-3.905-1.143-6.736,0.149-8.651,3.696c-2.082,3.857-3.374,8.049-5.168,12.024c-2.238,4.953-3.646,5.685-8.771,3.998
	c-3.38-1.112-4.49,0.191-4.227,3.273c0.236,2.764,0.806,5.788,3.504,7.022c4.35,1.99,5.169,5.877,6.042,9.743
	c1.809,8.014-4.993,19.587-12.83,22.154c-5.32,0.813-10.415,2.625-15.707,3.548c-10.011,2.443-16.932,13.396-15.325,24.188
	c1.012,6.802,4.057,12.664,8.071,18.126c1.589,2.163,3.486,4.217,3.522,7.17C488.19,367.864,488.852,374.826,484.897,380.645z"/>
<path fill-rule="evenodd" clip-rule="evenodd" fill="#238BAD" d="M389.318,360.483c1.204-0.29,2.407-0.58,4.284-1.032
	c-5.174-7.896-10.136-15.567-15.196-23.174c-12.162-18.279-21.773-37.677-25.956-59.421c-1.302-6.771-2.233-13.585-1.031-20.542
	c2.64-15.281,11.107-21.444,26.522-19.099c2.084,4.9-0.247,9.683-0.859,14.36c-1.273,9.727,0.022,19.245,1.08,28.753
	c2.074,18.648,6.296,36.902,11.513,54.92c0.909,3.136,1.768,6.276,1.389,10.762c0.231-23.978,3.457-46.294,10.857-67.944
	c1.774-5.193,4.323-10.007,6.832-14.848c0.92-1.776,1.945-3.542,4.189-3.967c2.73-2.891,5.179-6.04,8.799-8.012
	c11.583-6.31,22.699-0.026,22.776,13.117c0.048,8.09-2.282,15.773-4.985,23.312c-8.377,23.359-20.813,44.726-32.68,66.372
	c-1.122,2.046-2.668,3.931-2.828,6.411c-0.175,3.003-1.779,5.147-4.122,6.846c-1.411,1.016-2.834,1.056-4.272,0.06
	C394.057,364.578,392.201,362.06,389.318,360.483z"/>
<path fill-rule="evenodd" clip-rule="evenodd" fill="#0B4063" d="M301.588,290.899c5.563,0.584,11.121,1.201,16.428,3.129
	c-3.679,6.274-6.14,12.952-7.562,20.128c-1.694,8.555-6.443,16.028-9.301,24.19c-3.066,8.411-8.24,15.684-12.673,23.353
	c-1.1,1.902-3.051,3.06-4.988,4.105c-6.395,3.45-13.115,6.175-19.832,8.902c-2.231,0.906-4.514,1.734-6.38-0.746
	c-1.492-2.998-1.485-6.42-2.689-9.505c-0.45-1.088-0.762-2.2-0.661-3.394c-1.409-14.17-2.071-28.382-2.786-42.596
	c-0.227-4.517-0.366-8.993,0.121-13.484c3.566-4.431,8.402-7.299,12.947-10.526c2.524,0.399,4.052,2.283,5.808,3.852
	c7.383,6.596,12.797,6.755,21.095,1.198C294.915,296.96,297.394,292.899,301.588,290.899z"/>
<path fill-rule="evenodd" clip-rule="evenodd" fill="#3ED65B" d="M412.941,259.251c-10.173,15.552-14.317,33.165-17.4,51.123
	c-2.055,11.972-2.79,24.081-4.268,36.417c-2.559-9.334-5.287-18.626-7.641-28.013c-4.59-18.305-7.67-36.886-8.681-55.734
	c-0.467-8.703,0.99-17.334,2.991-25.83c2.911-6.218,6.298-11.899,13.714-13.665c7.649-1.821,12.604,0.398,16.062,7.507
	c3.079,6.331,4.009,13.137,4.394,20.072C412.263,253.843,412.657,256.544,412.941,259.251z"/>
<path fill-rule="evenodd" clip-rule="evenodd" fill="#0B4063" d="M330.039,343.215c4.878,17.945,7.858,36.306,11.885,54.437
	c0.822,3.698,1.489,7.431,2.227,11.148l-0.436-0.075c-0.919,0.826-2.054,0.595-3.121,0.596c-20.023,0.013-40.048-0.161-60.066,0.151
	c-4.008,0.063-4.678-2.548-6.307-4.713c-3.378-2.367-8.16,0.462-11.233-3.009c-1.583-2.392-2.304-4.983-1.804-7.852
	c1.131-3.114,4.022-3.354,6.631-3.93c7.253-1.602,14.591-2.799,21.821-4.524c5.098-1.216,9.18-3.675,12.523-7.95
	c6.146-7.858,11.686-16.127,17.391-24.285c1.262,0.005,2.221,0.62,3.356-1.293C324.789,348.746,325.677,344.445,330.039,343.215z"/>
<path fill-rule="evenodd" clip-rule="evenodd" fill="#231017" d="M243.757,245.13c-3.821-1.241-7.617-2.539-10.238-5.863
	c-3.583-4.545-2.293-9.328,3.262-10.953c2.315-0.678,3.057-1.796,3.697-3.957c2.784-9.396,8.426-12.22,17.96-9.035
	c4.682,1.564,8.891,1.729,13.597-0.602c5.872-2.908,12.315-3.419,18.346,0.037c3.624,2.077,5.953,5.045,3.487,9.451
	c-2.176,3.889-0.555,6.796,2.475,8.952c6.383,4.543,7.842,10.002,4.167,16.973c-0.911,1.728-1.518,3.779-0.903,5.817
	c1.155,3.833,1.258,7.16-3.205,9.049c-1.305,0.551-1.407,1.912-1.205,3.31c1.097,7.591-0.125,8.697-7.876,7.268
	c-4.28-2.62-5.841-8.02-3.51-12.19c0.35-0.626,0.881-1.125,1.314-1.693c1.306-1.711,3.121-3.636,1.699-5.738
	c-1.823-2.696-3.729,0.627-5.685,0.55c-0.519,0.02-1.02-0.064-1.504-0.253c-3.527-3.354-7.441-6.052-12.266-7.205
	c-0.802-0.205-1.602-0.395-2.438-0.424C257.716,248.374,250.379,248.912,243.757,245.13z"/>
<path fill-rule="evenodd" clip-rule="evenodd" fill="#5C7D99" d="M712.246,500.515c2.004-1.505,1.174-3.682,1.179-5.564
	c0.059-21.082,0.036-42.165,0.037-63.248c0-7.593,0.003-7.593,7.62-7.606c0.727-0.001,1.453-0.006,2.181-0.009
	c0.01,56.443,0.018,112.887,0.038,169.329c0.002,2.181,0.13,4.361,0.198,6.542c-0.068,9.08-0.316,18.164-0.12,27.237
	c0.08,3.732-1.276,4.732-4.723,4.468c-3.051-0.234-6.211,0.659-6.099-4.394c0.217-9.8-0.049-19.611-0.114-29.417
	c-2.292-2.603-1.81-5.806-1.813-8.851c-0.041-25.275-0.018-50.552-0.025-75.827c-0.003-9.727-0.013-9.73-9.479-9.74
	c-10.547-0.012-21.094,0.028-31.641-0.024c-2.521-0.014-5.137,0.247-7.316-1.507c-0.368-0.05-0.736-0.1-1.104-0.148
	c0.224-2.929,2.68-2.711,4.451-2.754c14.08-0.334,28.164-0.25,42.247-0.072C709.404,498.948,711,499.285,712.246,500.515z"/>
<path fill-rule="evenodd" clip-rule="evenodd" fill="#5C7D99" d="M74.247,423.016c9.025,0.145,18.036-0.284,27.074,0.891
	c3.93,0.512,4.72,1.752,4.702,5.274c-0.115,22.117-0.081,44.235-0.019,66.354c0.006,2.071-0.831,4.396,1.095,6.166
	c1.981,2.063,1.706,4.701,1.711,7.202c0.053,27.572,0.046,55.144,0.008,82.715c-0.003,2.52,0.195,5.128-1.622,7.262
	c-0.056,9.41-0.331,18.826-0.069,28.228c0.117,4.198-1.722,4.729-5.153,4.566c-3.179-0.15-5.967,0.374-5.786-4.558
	c0.318-8.667-0.061-17.361-0.147-26.043c0.099-1.813,0.284-3.625,0.285-5.437c0.015-55.32-0.054-110.641,0.128-165.96
	c0.016-4.855-1.258-6.211-6.056-6.034C85.042,423.839,79.566,424.652,74.247,423.016z"/>
<path fill-rule="evenodd" clip-rule="evenodd" fill="#EBCFA0" d="M280.822,256.219c2.201-1.045,3.827-4.784,6.822-2.182
	c2.514,2.185,1.693,5.453-0.364,7.209c-5.875,5.015-3.255,9.578,0.041,14.332c3.126,6.625,5.875,13.601,14.268,15.321
	c-2.913,4.5-6.745,8.048-11.322,10.79c-8.304,4.974-14.002,4.4-21.161-2.175c-1.726-1.585-3.27-3.369-4.896-5.061
	c2.878-0.548,5.429-1.561,7.089-5.073c-3.14-0.063-5.002,1.798-7.167,2.64c-5.392,2.098-10.223,0.898-13.418-3.637
	c-3.757-5.333-4.628-11.671-5.793-17.838c-0.609-3.221,2.423-2.294,4.109-2.798c0.477-0.276,0.944-0.261,1.397,0.043
	c0.248,0.438,0.348,0.913,0.301,1.412c-0.021,0.49,0.042,0.985,0.008,1.481c0.365-0.478-0.163-1.011,0.096-1.52
	c0.48-1.155,0.294-2.453,0.873-3.562c0.951-1.479,1.505-3.202,2.736-4.514c0.499-0.168,0.993-0.163,1.483,0.038
	c1.196,0.859,1.827,2.213,2.821,3.249c4.144,4.317,9.168,3.622,11.757-1.803c0.963-2.016,1.694-3.986,4.114-4.584
	C276.672,257.358,278.833,257.092,280.822,256.219z"/>
<path fill-rule="evenodd" clip-rule="evenodd" fill="#05334C" d="M330.039,343.215c-2.24,3.341-4.61,6.603-6.672,10.049
	c-1.362,2.276-2.037,0.797-2.947-0.203c-1.605,0.013-2.716-0.987-3.606-2.074c-4.504-5.495-10.962-8.55-16.2-13.12
	c-0.455-4.732,2.872-8.164,4.409-12.176c2.195-5.729,4.054-11.466,5.398-17.46c1.193-5.319,2.583-10.804,7.596-14.203
	c18.424,3.313,26.231,17.364,19.029,34.513C334.949,333.533,332.387,338.329,330.039,343.215z"/>
<path fill-rule="evenodd" clip-rule="evenodd" fill="#0B4063" d="M484.897,380.645c1.193-6.638,2.386-13.275,3.58-19.912
	c1.099-1.721,1.668-4.205,4.646-3.226c10.618,16.076,22.962,30.908,33.821,46.813c0.816,1.194,1.881,2.239,1.962,3.821
	c-0.448,1.41-1.643,1.175-2.672,1.175c-14.235,0-28.471,0.054-42.707-0.011c-0.592-0.002-1.008-0.316-1.469-0.582
	c-0.133-0.764-0.265-1.527-0.398-2.29C481.98,397.741,483.128,389.153,484.897,380.645z"/>
<path fill-rule="evenodd" clip-rule="evenodd" fill="#05334C" d="M552.844,310.507c7.15,1.02,12.684,4.897,17.558,9.938
	c1.83,6.401,4.657,12.569,4.546,19.425c-0.251,1.688-0.554,3.346-2.259,4.26c-0.244,0.531-0.596,0.977-1.051,1.344
	c-4.4,2.18-9.329,2.63-13.91,4.246c-3.093,0.49-4.87-1.056-5.652-3.854c-1.909-6.828-3.781-13.643-4.083-20.819
	C547.759,319.49,548.995,314.611,552.844,310.507z"/>
<path fill-rule="evenodd" clip-rule="evenodd" fill="#05334C" d="M251.265,304.981c2.389,5.634,0.881,11.624,1.511,17.432
	c1.276,11.749,0.522,23.671,2.808,35.361c0.265,1.354,0.39,2.92-0.917,4.033c-3.389,0.022-4.443-3.195-6.517-4.908
	c-3.562-2.943-7.909-4.89-10.879-8.562c-1.18-0.914-3.074-1.292-2.184-3.58c4.695-12.08,7.431-24.888,13.509-36.45
	C249.246,307.072,250.364,306.084,251.265,304.981z"/>
<path fill-rule="evenodd" clip-rule="evenodd" fill="#EBCFA0" d="M237.272,348.337c7.287,2.567,12.144,8.272,17.396,13.469
	c0.332,0.703,0.664,1.405,0.996,2.107c-3.079,8.004-9.513,12.418-16.195,11.113c-2.136-7.567-4.684-15.029-5.862-22.841
	C235.266,351.32,236.535,350.082,237.272,348.337z"/>
<path fill-rule="evenodd" clip-rule="evenodd" fill="#5DA0BA" d="M623.887,408.893c6.994-0.031,13.989-0.088,20.983-0.077
	c2.173,0.004,4.296-0.095,6.271-1.115c1.49,2.468,3.919,1.31,5.88,1.315c27.724,0.087,55.446,0.039,83.17,0.105
	c1.878,0.004,3.981-0.861,5.665,0.793c-38.938-0.007-77.874-0.007-116.812-0.047C627.299,409.865,625.363,410.479,623.887,408.893z"
	/>
<path fill-rule="evenodd" clip-rule="evenodd" fill="#FAF6F0" d="M275.28,259.017c-1.522,0.219-2.85,0.774-3.058,2.497
	c-0.583,4.844-4.077,6.964-8.141,7.037c-4.542,0.082-7.387-3.097-8.605-7.507c-1.248-1.611,0.004-3.13-0.322-5.296
	c-0.064,2.319-0.214,4.21-1.664,5.537c-3.203-1.554-4.136-4.747-5.504-7.625c0.361-0.323,0.723-0.645,1.084-0.968
	c4.095-2.528,8.953-0.009,13.13-1.998c1.018-0.277,2.039-0.288,3.065-0.062c4.082,0.697,6.425,3.915,9.281,6.398
	C275.117,257.571,275.613,258.143,275.28,259.017z"/>
<path fill-rule="evenodd" clip-rule="evenodd" fill="#4FB3AE" d="M153.909,407.753c6.834,2.133,13.858,0.522,20.77,1.073
	c2.236,0.178,4.678-0.855,6.672,0.988c-35.658,0.004-71.315,0.009-106.971,0.014c1.796-1.32,3.859-0.673,5.785-0.678
	c22.816-0.05,45.631-0.001,68.446-0.093C150.375,409.05,152.661,410.219,153.909,407.753z"/>
<path fill-rule="evenodd" clip-rule="evenodd" fill="#343938" d="M389.318,360.483c5.345-0.685,6.337,2.626,6.31,6.873
	c-7.22,0.251-14.211-0.685-21.827-3.953C379.336,360.491,384.377,360.74,389.318,360.483z"/>
<path fill-rule="evenodd" clip-rule="evenodd" fill="#E7CDA2" d="M262.396,251.461c-4.201,3.021-8.871,0.953-13.325,1.229
	c-6.706,0.95-5.098-3.948-5.316-7.561c7.528,1.74,15.291,1.297,22.875,2.488C266.234,250.018,262.362,248.588,262.396,251.461z"/>
<path fill-rule="evenodd" clip-rule="evenodd" fill="#353B3A" d="M399.902,367.297c1.298-2.329,1.927-5.061,4.125-6.845
	c5.041,0.458,10.255-0.298,16.268,2.194C413.249,366.498,406.744,367.578,399.902,367.297z"/>
<path fill-rule="evenodd" clip-rule="evenodd" fill="#EAD0A3" d="M247.986,253.659c3.094,1.646,4.296,4.585,5.25,7.692
	c0.179,0.141,0.358,0.281,0.537,0.422c-0.181,1.148-0.467,2.25-1.316,3.117c-0.393,0.26-0.78,0.523-1.163,0.798
	c-0.939,0.897-2.317,0.372-3.327,1.035c-7.06-0.245-3.483-5.72-4.265-8.937C242.888,254.432,244.802,253.22,247.986,253.659z"/>
<path fill-rule="evenodd" clip-rule="evenodd" fill="#F7F0E7" d="M247.968,266.723c0.96-1.168,2.258-1.733,3.689-2.058
	c0.296,1.45,0.052,2.628-1.568,3.113l-0.53,0.013c0,0-0.528-0.042-0.528-0.043C248.676,267.405,248.322,267.064,247.968,266.723z"/>
<path fill-rule="evenodd" clip-rule="evenodd" fill="#324A5E" d="M712.246,500.515c-15.222,0.006-30.445-0.022-45.667,0.058
	c-1.859,0.01-4.045-0.884-5.516,1.182c0,0.001,0.026-0.022,0.026-0.022c-3.31,2.099-6.598,2.211-9.864-0.095
	c-0.372-0.011-0.745-0.021-1.119-0.03c-1.735,1.61-3.909,1.799-6.104,1.797c-17.941-0.014-35.885,0.227-53.825-0.107
	c-11.662,0.19-23.327,0.23-34.99-0.008c-7.716,0.271-15.434,0.049-23.15,0.059c-12.016,0.124-24.032,0.13-36.047-0.01
	c-55.886,0.226-111.772,0.042-167.657,0.103c-3.277,0.004-6.56,0.121-9.829-0.029c-3.596-0.167-6.826,0.631-9.683,2.834
	c-3.324-2.438-7.031-3.104-11.137-2.982c-9.564,0.281-19.142-0.192-28.708,0.391c-4.969-0.491-9.956-0.253-14.936-0.388
	c-13.68,0.257-27.355,0.233-41.032,0.029c-10.708,0.302-21.418,0.103-32.126,0.103c-2.199,0-4.375-0.188-6.107-1.811
	c-0.376,0.015-0.752,0.028-1.128,0.041c-3.262,2.336-6.559,2.179-9.881,0.136l0.051,0.035c-16.675,0.651-33.357,0.199-50.036,0.303
	c-2.341,0.015-4.79,0.268-6.677-1.646c-0.015-23.634,0.054-47.269-0.125-70.9c-0.031-4.116,0.875-5.646,5.39-5.637
	c80.536,0.155,161.073,0.135,241.61,0.151c31.817,4.848,62.933,13.104,94.442,19.443c8.919,1.794,18.062,1.994,27.108,2.695
	c20.83,1.616,41.626,3.656,62.491,4.869c16.248,1.734,32.558,2.692,48.829,4.112c20.429,1.782,40.877,3.33,61.313,5.031
	c15.731,1.31,31.478,2.479,47.21,3.775c5.714,0.47,11.625,0.025,17.005,2.711C712.332,477.977,712.29,489.246,712.246,500.515z"/>
<path fill-rule="evenodd" clip-rule="evenodd" fill="#FEFEFE" d="M308.299,506.345c0.615-3.115,1.271-5.153,5.676-5.136
	c59.438,0.231,118.876,0.153,178.314,0.166c1.265,0,2.53,0.161,3.794,0.246c3.79,2.975,3.945,7.646,5.075,11.692
	c6.089,21.802,11.443,43.798,16.852,65.778c0.624,2.537,2.02,5.194-0.021,7.775c-4.454,2.393-9.267,0.441-13.847,1.157
	c-2.311,0.36-6.045-1.589-6.621,1.674c-0.619,3.511-2.328,7.92,2.407,10.747c2.849,1.702,4.133,4.795,3.182,7.986
	c-0.893,2.999-2.828,5.444-6.476,5.804c-3.688,0.364-6.813-0.762-7.894-4.304c-1.08-3.536-1.075-7.783,2.792-9.665
	c5.21-2.535,3.063-6.753,3.168-10.42c0.056-1.938-1.902-1.843-3.349-1.845c-8.371-0.017-16.744-0.095-25.114,0.024
	c-5.46,0.078-8.897,3.488-11.793,7.689c-1.979,2.872,0.027,4.123,1.934,5.672c3.464,2.817,3.313,6.402,1.176,9.77
	c-2.152,3.392-5.696,3.733-9.226,2.593c-3.92-1.267-5.006-4.462-4.683-8.249c0.073-0.857,0.327-2.118,0.916-2.451
	c7.103-4.006,8.466-13.579,17.418-16.809c-38.181,0-75.29,0-112.399,0c-0.245,0.375-0.489,0.749-0.733,1.124
	c6.336,2.771,6.973,10.591,13.639,13.43c3.343,1.423,3.581,7.745,1.291,10.696c-2.346,3.022-7.2,3.797-10.255,1.634
	c-3.561-2.521-4.401-6.76-2.401-10.538c1.107-2.093,5.416-2.574,3.109-6.464c-2.466-4.159-5.979-7.574-10.566-7.852
	c-10.154-0.615-20.369-0.232-30.559-0.258c-1.736-0.004-2.944,0.768-2.716,2.58c0.419,3.341-1.909,7.491,2.686,9.681
	c4.452,2.122,4.553,6.112,3.31,9.798c-1.168,3.466-4.616,4.402-8.136,4.11c-2.741-0.229-4.48-1.433-3.577-4.593
	c-2.109-3.041-1.599-6.239-0.576-9.468c3.041-2.633,3.309-6.493,2.098-9.47c-2.084-5.123-1.479-10.302-1.963-15.472
	c-0.451-21.359,1.073-42.644,2.229-63.941C306.559,509.441,306.645,507.584,308.299,506.345z"/>
<path fill-rule="evenodd" clip-rule="evenodd" fill="#FEFEFE" d="M589.975,501.64c20.044-0.011,40.088-0.022,60.132-0.033
	c-0.003,28.707-0.093,57.415,0.087,86.121c0.025,4.032-0.789,4.896-4.98,4.799c-17.378-0.411-34.67-2.288-52.061-2.648
	c-7.375-0.152-14.813-0.591-22.227-0.814c-1.439-0.043-2.945,0.171-4.02-1.145c-1.5-2.889,0.315-5.291,1.256-7.749
	c7.157-18.711,14.273-37.432,18.083-57.197c1.067-5.54,2.006-11.104,2.271-16.756C588.594,504.553,588.802,502.946,589.975,501.64z"
	/>
<path fill-rule="evenodd" clip-rule="evenodd" fill="#FEFEFE" d="M107.195,598.879c-0.033-32.393-0.065-64.785-0.097-97.179
	l-0.013,0.017c3.163-1.166,6.444-0.518,9.663-0.538c13.6-0.084,27.2-0.067,40.799,0.003c1.721,0.01,3.639-0.744,5.174,0.758
	c-0.007,29.046-0.097,58.092,0.071,87.137c0.024,4.269-1.169,5.402-5.469,5.592c-14.586,0.644-29.137,1.947-43.612,3.985
	C111.571,598.954,109.369,598.814,107.195,598.879z"/>
<path fill-rule="evenodd" clip-rule="evenodd" fill="#FEFEFE" d="M662.168,501.903c15.777-0.103,31.555-0.146,47.33-0.347
	c4.004-0.051,3.088,2.685,3.094,4.845c0.041,17.784,0.045,35.568,0.016,53.353c-0.02,12.7-0.107,25.399-0.165,38.099
	c-15.362-0.272-30.52-3.311-45.9-3.391c-3.916-0.021-4.432-2.63-4.422-5.96C662.204,559.636,662.168,530.769,662.168,501.903z"/>
<path fill-rule="evenodd" clip-rule="evenodd" fill="#FEFEFE" d="M174.774,501.586c12.734-0.305,25.467-0.506,38.198,0.104
	c2.881,3.95,0.802,8.466,1.143,12.652c1.218,14.944,5.007,29.256,9.312,43.469c2.676,8.833,5.527,17.627,8.868,26.248
	c0.753,1.944,2.023,3.989,0.342,6.126c-18.327-0.289-36.534,1.802-54.791,2.869c-2.227,0.13-3.051-0.409-3.055-2.495
	c-0.002-1.273-0.018-2.547-0.018-3.821C174.773,558.354,174.774,529.971,174.774,501.586z"/>
<path fill-rule="evenodd" clip-rule="evenodd" fill="#05334C" d="M304.967,600.039c-0.098,3.184-0.195,6.368-0.293,9.551
	c-1.043,0.45-2.086,0.901-3.13,1.352c-3.825,2.703-7.942,1.288-11.99,0.853c-3.184,0.534-4.826-0.59-5.587-3.968
	c-1.506-6.678-3.511-13.243-5.31-19.855c-1.178-0.975-1.752-2.316-2.075-3.737c-5.369-23.694-10.614-47.415-10.46-71.903
	c0.021-3.382-0.088-6.969,2.87-9.542c1.727-1.316,3.743-1.153,5.741-1.151c9.441,0.013,18.889,0.2,28.322-0.09
	c3.796-0.116,5.335,1.181,5.244,4.798c-0.891,23.116-2.628,46.201-2.535,69.353c-0.568,4.643-0.706,9.228,0.287,13.892
	C306.79,593.067,307.171,596.753,304.967,600.039z"/>
<path fill-rule="evenodd" clip-rule="evenodd" fill="#05334C" d="M232.637,590.186c-5.54-16.659-11.918-33.06-15.815-50.23
	c-2.857-12.589-5.544-25.211-3.849-38.265c13.97,0.027,27.94,0.054,41.91,0.08c1.088,1.352,1.347,2.968,1.338,4.612
	c-0.15,27.005,1.911,53.947,2.231,80.936c-0.079,4.596-0.39,9.203,0.504,13.77c0.336,2.781,0.456,5.476-2.883,6.668
	c-3.795,0.535-7.588,2.523-11.408,0.082c-3.457,0.586-5.146-1.135-6.305-4.25C236.667,599.04,234.564,594.646,232.637,590.186z"/>
<path fill-rule="evenodd" clip-rule="evenodd" fill="#EBCFA0" d="M517.989,586.867c-3.447-17.614-8.335-34.882-12.706-52.271
	c-2.78-11.064-6.115-21.988-9.201-32.976c11.989,0.006,23.979,0.012,35.967,0.018c3.071,1.431,4.379,4.145,5.415,7.16
	c3.061,8.915,3.492,18.229,3.82,27.473c0.574,16.201-0.811,32.344-2.469,48.452c-0.384,1.786-1.021,3.534-0.86,5.412
	c0.058,0.909,0.04,1.817-0.024,2.726c-0.463,3.59-0.551,7.26-2.208,10.6c-1.082,1.023-2.483,1.641-3.863,1.646
	c-4.906,0.02-8.335,1.983-9.891,6.786c-0.932-7.726,0.083-15.704-3.032-23.142C518.667,588.104,518.308,587.494,517.989,586.867z"/>
<path fill-rule="evenodd" clip-rule="evenodd" fill="#EBCFA0" d="M589.975,501.64c0.195,15.454-3.731,30.159-8.158,44.77
	c-4.269,14.088-9.899,27.688-14.908,41.51c-3.03,4.323-4.403,9.397-6.427,14.175c-3.967,2.768-8.052,2.193-12.182,0.435
	c-2.555-4.598-1.253-9.573-1.403-14.406c1.972-25.898,3.983-51.795,5.497-77.729c0.18-3.074,0.482-6.199,2.606-8.734
	C566.658,501.652,578.316,501.646,589.975,501.64z"/>
<path fill-rule="evenodd" clip-rule="evenodd" fill="#FEFEFE" d="M255.711,606.84c3.331-0.973,0.85-3.958,1.972-5.696
	c4.229-3.289,7.869-7.101,10.195-11.873c-3.405-0.703-7.712,3.548-10.925-1.293c-0.902-26.763-1.821-53.525-2.669-80.29
	c-0.062-1.965,0.388-3.943,0.6-5.917c4.732-0.063,9.591-1.88,14.11,1.018c-3.033,14.327-0.708,28.521,1.544,42.61
	c2.28,14.26,5.38,28.388,8.121,42.572c-3.301,1.383-7.111,2.078-9.102,5.448c-1.694,2.87-4.499,5.435-0.411,9.263
	c2.716,2.545,2.376,7.061-0.655,9.733c-3.692,3.257-7.928,2.842-11.759-0.357C254.98,610.594,254.071,608.967,255.711,606.84z"/>
<path fill-rule="evenodd" clip-rule="evenodd" fill="#042C3D" d="M548.376,602.097c4.035-0.002,8.07-0.002,12.105-0.003
	c1.858,2.866,3.695,5.747,5.58,8.596c3.603,5.446,7.95,9.883,14.735,11.214c1.377,0.27,2.69,1.065,3.925,1.801
	c1.1,0.656,2.081,1.61,1.95,3.053c-0.163,1.797-1.747,2.112-3.079,2.625c-0.331,0.127-0.711,0.139-1.071,0.177
	c-6.418,0.686-13.041-2.376-18.67-1.527c-6.282,0.947-12.364,1.93-18.56,1.015c-6.835-1.011-12.688-4.237-17.214-10.229
	c-1.836,2.336-1.115,4.966-1.665,7.26c-0.278,1.16-0.171,2.831-1.905,2.788c-1.637-0.042-1.823-1.49-1.885-2.815
	c-0.219-4.718-0.436-9.435-0.653-14.153c0.297-7.651,0.297-7.651,8.361-7.967c1.6-0.063,3.199-0.127,4.797-0.191
	c0.782-0.288,1.533-0.192,2.263,0.176c3.037,2.357,4.265,6.14,7.186,9.129c1.452-3.788-1.353-8.332,2.366-11.313
	C547.472,601.65,547.952,601.765,548.376,602.097z"/>
<path fill-rule="evenodd" clip-rule="evenodd" fill="#5C7D98" d="M651.226,501.637c3.288,0.03,6.576,0.063,9.864,0.095
	c0.064,33.066,0.044,66.134,0.296,99.199c0.034,4.536-1.959,4.824-5.557,4.926c-3.913,0.111-4.865-1.293-4.846-5.02
	C651.165,567.771,651.169,534.703,651.226,501.637z"/>
<path fill-rule="evenodd" clip-rule="evenodd" fill="#5D7D99" d="M163.765,501.763c3.294-0.045,6.588-0.09,9.881-0.135
	c0.04,32.879,0.045,65.76,0.168,98.639c0.013,3.511-0.107,5.768-4.771,5.639c-4.167-0.115-5.602-1.093-5.569-5.508
	C163.718,567.521,163.7,534.641,163.765,501.763z"/>
<path fill-rule="evenodd" clip-rule="evenodd" fill="#07354D" d="M269.667,639.244c-4.951-1.865-9.066,2.293-13.885,1.911
	c-2.375-0.188-5.771,1.9-6.902-0.681c-1.197-2.729,2.407-4.022,4.395-5.148c4.054-2.294,8.444-3.986,12.584-6.141
	c1.522-0.792,2.646-0.521,3.902,0.248c1.393-0.308,3.466,0.521,3.485-2.084c0.949-2.42,4.95,0.425,5.281-3.061
	c2.561-0.498,5.025-1.541,7.705-1.382c1.182-1.384,2.881-0.828,4.344-1.159c4.244-1.909,8.205-0.693,12.113,1.096
	c1.984,1.911,0.572,4.474,1.271,6.631c-2.147,0.953-4.097,2.403-6.539,2.615c-1.116,1.068-2.529,0.892-3.89,0.934
	c-1.306,0.367-2.608,0.744-3.949,0.967c-0.421,0.164-0.825,0.363-1.212,0.597c-0.686,0.063-1.371,0.129-2.057,0.192
	c-2.538,1.018-5.365,1.061-7.825,2.335c-0.342,0.091-0.661,0.234-0.954,0.434C274.704,637.146,272.337,638.902,269.667,639.244z"/>
<path fill-rule="evenodd" clip-rule="evenodd" fill="#08354E" d="M222.67,634.883c-0.646,0.046-1.294,0.092-1.941,0.137
	c-2.008,1.913-4.415,0.851-6.673,0.894c-2.859,0.352-5.712,0.813-8.582,0.995c-0.977,0.063-2.435-0.273-2.907-0.957
	c-0.937-1.356,0.484-2.395,1.408-3.052c5.749-4.09,11.824-7.545,18.889-8.851c1.015,0.627,1.922,1.378,2.646,2.293
	c0.993,0.394,1.284-0.387,1.653-1.025c0.583-1.459-0.049-3.282,1.374-4.466c1.069,0.775,2.139,1.549,3.147,2.278
	c1.589-0.943-1.39-2.837,1.004-3.389c2.727-0.177,5.095-1.695,7.769-2.071c1.379-0.118,2.759-0.237,4.139-0.357
	c4.287-2.33,8.28-1.305,12.156,1.064c1.034,1.315,1.053,2.904,1.197,4.459c-0.088,4.026-3.958,2.595-5.834,4.049
	c-1.6-0.446-2.798,0.908-4.288,0.958c-1.61-0.341-2.831,1.139-3.466,1.076c0.765,0.023,2.167-1.437,3.919-1.058
	c0.758-0.12,1.503-0.372,2.285-0.188c-2.295,3.126-5.825,2.553-9.012,3.004c-0.871,0.586-1.915,0.443-2.869,0.687
	c-2.56-0.053-4.881,0.831-7.176,1.823C228.547,633.672,225.515,633.787,222.67,634.883z"/>
<path fill-rule="evenodd" clip-rule="evenodd" fill="#E9CEA0" d="M302.689,622.844c-4.038-0.364-8.075-0.729-12.112-1.096
	c-0.462-3.306,1.127-6.823-1.026-9.954c3.944-1.07,7.967-0.99,11.993-0.853C302.355,614.868,302.919,618.818,302.689,622.844z"/>
<path fill-rule="evenodd" clip-rule="evenodd" fill="#E8CEA0" d="M256.752,618.376c-4.051-0.354-8.102-0.71-12.154-1.064
	c0.021-3.158,0.044-6.315,0.067-9.474c3.682-0.333,7.364-0.665,11.046-0.998c0.34,1.739,0.679,3.479,1.019,5.218
	C256.737,614.164,256.745,616.27,256.752,618.376z"/>
<path fill-rule="evenodd" clip-rule="evenodd" fill="#5D7D99" d="M162.721,501.939c-18.546-0.073-37.091-0.148-55.636-0.223
	c0.005-0.42,0.011-0.84,0.017-1.261c17.072,0.024,34.145,0.02,51.217,0.119c1.854,0.01,4.059-0.915,5.497,1.223
	C163.451,501.845,163.086,501.893,162.721,501.939z"/>
<path fill-rule="evenodd" clip-rule="evenodd" fill="#F6F7F7" d="M286.232,622.907c-2.442,1.165-4.654,3.611-7.705,1.382
	c-1.197-2.945-1.754-5.821,1.756-9.475C279.011,620.866,283.976,620.563,286.232,622.907z"/>
<path fill-rule="evenodd" clip-rule="evenodd" fill="#F7F8F8" d="M240.458,617.669c-2.006,2.88-4.544,3.764-7.769,2.071
	c-0.359-1.374-0.891-2.732-1.026-4.128c-0.132-1.37-0.447-3.363,1.229-3.748c2.087-0.479,1.951,1.526,1.998,2.89
	C235.038,619.049,239.731,614.558,240.458,617.669z"/>
<path fill-rule="evenodd" clip-rule="evenodd" fill="#446578" d="M252.388,626.149c0.979-2.572,4.771-0.427,5.562-3.314
	c0.781,1.19,1.778,3.073,0.325,3.61c-2.259,0.834-4.607,3.575-7.381,0.909C251.272,626.805,251.952,626.629,252.388,626.149z"/>
<path fill-rule="evenodd" clip-rule="evenodd" fill="#244B61" d="M296.924,631.49c2.423-0.402,3.972-3.857,7.037-2.016
	c1.688,1.595,0.324,1.944-0.952,2.266c-1.91,0.479-3.833,0.908-5.75,1.36C296.713,632.653,296.601,632.116,296.924,631.49z"/>
<path fill-rule="evenodd" clip-rule="evenodd" fill="#CED7DC" d="M269.667,639.244c2.155-2.733,4.771-3.327,7.868-1.696
	C275.052,638.762,272.918,641.597,269.667,639.244z"/>
<path fill-rule="evenodd" clip-rule="evenodd" fill="#D4DCE1" d="M278.489,637.114c1.944-3.006,4.794-2.972,7.825-2.335
	C284.329,637.646,281.525,637.769,278.489,637.114z"/>
<path fill-rule="evenodd" clip-rule="evenodd" fill="#2D5269" d="M228.419,626.177c-2.189,3.275-2.189,3.275-3.369,1.188
	c0.148-1.228-0.634-2.221-0.846-3.355c0.023-2.112,1.815-1.609,2.987-2.024C227.911,623.291,228.534,624.626,228.419,626.177z"/>
<path fill-rule="evenodd" clip-rule="evenodd" fill="#D7DBE0" d="M231.655,633.676c0.661-4.423,3.917-3.307,6.723-3.149
	c0.747,2.293-2.423,0.912-2.384,2.542c-1.305,1.23-2.864,0.848-4.387,0.691L231.655,633.676z"/>
<path fill-rule="evenodd" clip-rule="evenodd" fill="#436678" d="M273.246,627.35c1.883,1.756,0.387,3.177-0.463,4.662
	c-1.007-0.858-2.015-1.718-3.022-2.578C269.78,626.83,271.498,627.065,273.246,627.35z"/>
<path fill-rule="evenodd" clip-rule="evenodd" fill="#27495D" d="M296.924,631.49c0.112,0.535,0.223,1.072,0.335,1.609
	c-2.856,1.131-5.642,2.685-8.887,1.487l-0.006-0.525c1.607-1.155,3.951-0.58,5.332-2.269
	C294.806,632.037,295.916,632.307,296.924,631.49z"/>
<path fill-rule="evenodd" clip-rule="evenodd" fill="#6D8595" d="M214.057,635.913c2.2-0.479,4.335-1.445,6.673-0.894
	C219.01,639.093,216.43,636.731,214.057,635.913z"/>
<path fill-rule="evenodd" clip-rule="evenodd" fill="#D7DBE0" d="M231.655,633.676c0,0-0.049,0.083-0.049,0.084
	c-0.314,0.078-0.634,0.108-0.958,0.094c-1.929,1.001-4.206,0.289-6.144,1.25c-0.611-0.074-1.222-0.146-1.833-0.221
	C225.28,631.614,228.325,631.588,231.655,633.676z"/>
<path fill-rule="evenodd" clip-rule="evenodd" fill="#41677A" d="M235.994,633.068c-0.917-2.454,2.733-0.621,2.384-2.542
	c1.059,0.051,2.117,0.101,3.176,0.15C240.041,632.266,237.955,632.521,235.994,633.068z"/>
<path fill-rule="evenodd" clip-rule="evenodd" fill="#40637A" d="M224.504,635.104c1.835-1.465,4.018-1.219,6.144-1.25
	C228.824,635.371,226.668,635.258,224.504,635.104z"/>
<path fill-rule="evenodd" clip-rule="evenodd" fill="#BBC4CD" d="M224.204,624.01c1.352,0.848,2.436,1.765,0.846,3.354
	c-0.729-1.104-1.457-2.21-2.185-3.315C223.312,624.036,223.758,624.022,224.204,624.01z"/>
<path fill-rule="evenodd" clip-rule="evenodd" fill="#C4CED6" d="M228.419,626.177c-0.824-1.276-2.126-2.413-1.228-4.192
	c0.449-0.377,0.898-0.756,1.347-1.134C227.153,622.597,230.374,624.444,228.419,626.177z"/>
<path fill-rule="evenodd" clip-rule="evenodd" fill="#CBD6DB" d="M252.388,626.149c-0.123,0.864-0.774,1.074-1.492,1.204
	c-0.002,0.001-0.33,0.32-0.33,0.319c-0.769,0.672-1.644,0.797-2.601,0.508c0.002-0.226,0.004-0.452,0.006-0.677
	C249.206,626.276,250.804,626.237,252.388,626.149z"/>
<path fill-rule="evenodd" clip-rule="evenodd" fill="#FEFEFE" d="M349.021,137.088c2.047-11.678,3.668-23.188,7.132-34.338
	c1.134-3.649,2.236-7.338,4.336-10.552c2.011-3.078,4.925-4.314,8.48-2.755c3.606,1.582,5.836,4.63,4.304,8.31
	c-8.488,20.384-9.567,42.023-11.239,63.569c-0.289,3.72-1.071,6.961-5.044,8.119c-4.066,1.184-6.939-0.852-9.392-3.931
	c-6.086-7.642-10.091-16.36-13.429-25.444c-0.734-1.998-1.522-3.976-2.407-6.281c-5.651,10.252-11.017,20.139-16.544,29.935
	c-2.049,3.632-4.129,7.622-9.4,6.879c-5.071-0.715-6.411-4.942-7.72-8.901c-5.382-16.278-7.8-33.207-10.751-50.015
	c-0.534-3.041-0.983-6.098-1.396-9.158c-0.709-5.265,1.48-8.837,5.734-9.47c4.299-0.639,7.5,1.994,8.461,7.268
	c2.312,12.683,4.504,25.388,6.78,38.078c0.384,2.14,0.948,4.247,1.46,6.511c2.508-1.184,2.941-3.722,3.966-5.701
	c4.845-9.362,9.551-18.795,14.219-28.246c1.699-3.441,4.075-5.517,8.129-5.024c3.882,0.471,5.417,3.088,6.289,6.542
	C343.107,120.863,345.187,129.266,349.021,137.088z"/>
<path fill-rule="evenodd" clip-rule="evenodd" fill="#FEFEFE" d="M474.08,125.999c-0.821,12.249-6.065,24.423-18.126,32.803
	c-8.974,6.235-18.854,4.188-24.353-5.23c-7.704-13.198-9.12-27.104-2.033-41.075c5.649-11.136,16.298-16.72,26.118-14.302
	C467.153,101.018,474.135,110.773,474.08,125.999z"/>
<path fill-rule="evenodd" clip-rule="evenodd" fill="#FEFEFE" d="M420.682,128.565c-0.321,9.042-5.517,19.925-15.347,28.408
	c-10.192,8.796-22.028,6.565-28.104-5.353c-6.149-12.06-7.36-24.622-1.709-37.26c5.295-11.844,16.191-18.585,26.018-16.471
	C413.912,100.552,420.882,110.233,420.682,128.565z"/>
<path fill-rule="evenodd" clip-rule="evenodd" fill="#3C4E62" d="M712.376,466.707c-17.667-0.909-35.269-2.641-52.894-4.106
	c-10.252-0.852-20.522-1.594-30.783-2.427c-16.725-1.355-33.47-2.39-50.161-4.206c-10.766-1.171-21.606-1.705-32.426-2.304
	c-2.914-0.161-5.768-0.332-8.564-1.159c-9.75-3.66-20.086-4.895-30.168-7.139c-26.458-5.89-52.983-11.478-79.457-17.3
	c-2.435-0.535-5.757-0.162-6.2-3.99c53.901-0.001,107.803-0.002,161.704-0.003c21.046,2.864,41.574,8.292,62.334,12.574
	c4.967,1.025,9.563,2.549,14.17,5.061c5.473,2.983,12.152,3.499,18.39,4.573c9.653,1.663,19.011,4.751,28.791,5.77
	c2.012,0.209,3.767,1.266,5.282,2.639C712.388,458.695,712.382,462.701,712.376,466.707z"/>
<path fill-rule="evenodd" clip-rule="evenodd" fill="#384D60" d="M421.723,424.076c5.62,3.691,12.305,3.779,18.535,5.184
	c26.772,6.038,53.63,11.693,80.461,17.474c4.059,0.874,8.113,1.815,12.213,2.44c2.252,0.343,3.607,1.486,4.616,3.331
	c-17.679-0.922-35.302-2.496-52.926-4.159c-8.984-0.85-18-1.615-26.997-2.192c-12.22-0.784-23.784-4.405-35.617-6.809
	c-21.946-4.458-43.796-9.385-65.679-14.152c-0.826-0.18-1.569-0.739-2.352-1.122C376.56,424.072,399.141,424.074,421.723,424.076z"
	/>
<path fill-rule="evenodd" clip-rule="evenodd" fill="#3E4F61" d="M712.394,454.689c-14.204-2.913-28.863-4.463-42.517-9.022
	c-27.523-9.194-56.004-13.931-84.098-20.473c-0.827-0.192-1.57-0.739-2.352-1.121c40.866-0.013,81.733,0.076,122.599-0.162
	c5.392-0.031,7.336,1.563,6.354,6.744c-3.822,0.147-7.749,0-9.684,4.398c-0.365,0.83-1.624,1.678-2.203,1.04
	c-3.316-3.646-7.073-0.98-10.609-0.924c-2.432,0.04-3.079-2.217-4.407-3.301c-2.248,0.978-1.689,4.827-4.684,4.096
	c-1.513-0.369-1.742-2.144-1.392-3.686c-1.001,1.067-0.057,2.391-0.417,3.559c-0.216,0.694-0.343,1.448-1.194,1.656
	c-1.051,0.257-1.74-0.3-2.21-1.141c-1.163-2.083-1.032-5.621-4.544-5.227c-3.379,0.381-5.561,3.091-7.695,5.523
	c-0.706,0.805-1.034,1.918-1.834,2.671c-0.323,0.526-1.561-0.064-1.367,0.951c0.082,0.435,0.917,0.396,1.453,0.45
	c4.593-0.525,8.394,2.908,12.942,2.523c1.08,0.204,2.006,0.933,3.148,0.95c0.424,0.045,0.833,0.146,1.232,0.284
	c0.995,0.492,1.985,0.402,2.98-0.037c0.453-0.042,0.882,0.026,1.296,0.21c0.922,0.635,1.871,1.218,2.925,1.609
	c1.036,0.429,2.117,0.747,3.125,1.234c1.468,0.967,3.042-0.169,4.54,0.219c1.494,0.65,3.08,0.908,4.693,1.06
	c3.066,1.253,6.295,0.916,9.481,0.966c1.396,0.945,2.011,0.658,1.695-1.091c0.647-1.17,0.543-3.108,2.737-2.711
	C712.393,448.856,712.394,451.772,712.394,454.689z"/>
<path fill-rule="evenodd" clip-rule="evenodd" fill="#374C5E" d="M661.015,439.393c1.731-5.261,6.582-9.461,10.934-9.468
	c2.46-0.005,2.799,0.455,5.146,7.219c1.656-2.576,0.244-5.834,2.803-8.158c0.868,2.138-0.694,4.64,1.499,6.612
	c1.022-2.146,2.007-4.213,3.018-6.331c1.65,0.111,2.582,1.385,3.133,2.578c0.53,1.151,0.602,2.758,2.204,2.42
	c1.344-0.283-0.868-2.616,1.304-3.025c2.102,0.145,0.134,3.371,2.705,3.43c1.045-1.131,0.567-3.361,2.765-4.51
	c0.674,2.473,2.48,4.007,4.584,5.303c2.569-5.896,6.276-7.444,11.273-4.807c-0.003,3.643-0.004,7.285-0.005,10.929
	c-2.935,1.915-1.596,5.058-2.195,7.644c0.056,1.935-0.997,1.646-2.184,1.091c-2.937-3.445-6.266-3.348-9.835-1.092
	c-1.824,1.107-3.405,1.245-4.369-1.091c-1.456-1.974-2.914-2.416-4.371-0.001c-1.202-0.038-2.493,0.193-3.278-1.093
	c-0.47-1.663-2.146-1.521-3.28-2.19c-0.363,0.002-0.727,0.003-1.09,0.004c-1.094,0.472-2.188,0.358-3.28-0.004
	c-0.363,0.001-0.727,0.003-1.091,0.004c-0.876-0.073-1.416-0.814-2.187-1.096c-2.039,1.546-4.14,0.899-6.084-0.054
	c-2.586-1.268-5.322-1.758-8.116-2.128C660.598,440.85,660.76,440.121,661.015,439.393z"/>
<path fill-rule="evenodd" clip-rule="evenodd" fill="#364D5F" d="M482.058,408.724c14.262,0.026,28.524,0.085,42.786,0.012
	c1.08-0.005,3.822,1.457,2.899-1.941c-1.443-3.312,0.806-5.163,3.231-5.502c8.701-1.216,17.471-1.476,26.191,0.136
	c0.565,0.104,0.819,0.668,1.188,1.051c-0.374,2.112-0.747,4.226-1.12,6.339c-23.207,0.161-46.394,1.669-69.609,0.978
	C485.757,409.74,483.588,410.72,482.058,408.724z"/>
<path fill-rule="evenodd" clip-rule="evenodd" fill="#334C5F" d="M275.273,402.304c0.645,0.6,1.919,1.308,1.837,1.78
	c-0.983,5.671,2.912,4.723,6.168,4.718c20.146-0.03,40.292-0.052,60.437-0.076c-1.289,2.003-3.305,1.052-4.96,1.058
	c-19.401,0.074-38.821,0.561-58.197-0.153c-10.847-0.399-21.688-0.589-32.534-0.793c-0.338-1.816-0.676-3.634-1.015-5.451
	c5.119-2.896,10.591-1.599,15.899-1.081C267.064,402.71,271.148,403.191,275.273,402.304z"/>
<path fill-rule="evenodd" clip-rule="evenodd" fill="#3C4E62" d="M710.181,449.228c-1.961-2.577-0.609-5.422-0.171-7.934
	c0.485-2.776,1.494,0.416,2.366,0.29c0.005,1.452,0.01,2.904,0.015,4.355C711.655,447.035,710.918,448.131,710.181,449.228z"/>
<path fill-rule="evenodd" clip-rule="evenodd" fill="#EBCFA0" d="M300.613,337.868c8.361,2.772,14.12,8.936,19.807,15.193
	c-5.691,11.189-13.202,21.087-21.71,30.241c-2.329,2.505-5.824,2.711-8.933,3.608c-9.161,2.646-18.867,2.9-27.84,6.359
	c-5.593,1.753-11.146,3.962-17.108,1.497c-1.316-4.743-2.631-9.485-3.947-14.229c5.177-3.7,11.606-4.191,17.236-6.729
	c0.615,0.322,1.275,0.974,1.836,0.896c1.047-0.143,2.04-0.701,3.05-1.099C285.787,364.653,285.787,364.653,300.613,337.868z"/>
<path fill-rule="evenodd" clip-rule="evenodd" fill="#FDFDFD" d="M195.667,378.864c-0.123,2.791-2.532,4.325-6.007,4.314
	c-4.262-0.014-8.495-4.218-8.561-8.266c-0.062-3.823,1.943-5.598,5.697-5.567C191.456,369.384,195.71,373.409,195.667,378.864z"/>
<path fill-rule="evenodd" clip-rule="evenodd" fill="#FDFDFD" d="M244.828,394.768c5.778,0.359,11.286-2.375,17.109-1.495
	c0.506,2.626,1.012,5.254,1.519,7.882c-0.027,1.096-0.649,1.606-1.684,1.578c-4.975-0.139-9.967,0.5-14.925-0.35
	C245.563,400.006,245.025,397.432,244.828,394.768z"/>
<path fill-rule="evenodd" clip-rule="evenodd" fill="#FDFDFD" d="M258.118,373.81c-4.734,4.838-11.236,5.143-17.238,6.728
	c-0.469-1.836-0.94-3.674-1.412-5.512c7.604-0.487,11.752-6.015,16.195-11.111C257.463,366.969,257.591,370.438,258.118,373.81z"/>
<path fill-rule="evenodd" clip-rule="evenodd" fill="#37626C" d="M246.848,402.383c5.501-0.887,11.24,1.449,16.608-1.229
	c3.771,2.119,7.895,0.605,11.818,1.149c-4.426,2.197-9.138,0.716-13.708,0.987c-4.837,0.288-9.704,0.084-14.558,0.095
	C246.929,403.056,246.875,402.721,246.848,402.383z"/>
<path fill-rule="evenodd" clip-rule="evenodd" fill="#EBCFA0" d="M558.353,402.479c-8.13-0.029-16.262,0.029-24.39-0.13
	c-3.344-0.065-5.673,0.821-6.22,4.445c-3.514-1.586-4.032-5.452-6.081-8.152c-9.124-12.019-17.985-24.236-26.915-36.402
	c-1.042-1.42-2.605-2.669-2.068-4.794c5.024-4.91,10.868-8.396,17.696-10.173c6.056,5.881,9.195,13.766,14.017,20.5
	c1.361,1.9,2.73,3.876,3.729,5.976c4.39,9.227,11.378,14.565,21.748,15.11c0.709,0.14,1.423,0.296,2.089,0.572
	c3.931,1.636,4.326-0.332,3.74-3.54c-0.712-3.902-1.46-7.796-2.244-11.692c5.032-7.854,4.292-16.82,4.925-25.521
	c3.869-2.857,8.656-2.785,13.018-4.072c1.84,1.425,0.455,3.505,1.054,5.182C568.195,367.471,563.598,385.062,558.353,402.479z"/>
<path fill-rule="evenodd" clip-rule="evenodd" fill="#FDFDFD" d="M615.138,383.227c-3.554-0.304-5.77-1.93-5.624-5.799
	c0.158-4.186,4.272-8.001,8.691-8.073c3.658-0.059,5.854,1.523,5.876,5.417C624.104,379.016,619.6,383.265,615.138,383.227z"/>
<path fill-rule="evenodd" clip-rule="evenodd" fill="#EEEFEA" d="M572.45,349.789c-1.607-1.473-0.822-3.431-1.054-5.183
	c0.429-0.158,0.857-0.316,1.289-0.475C574.775,346.108,573.275,347.935,572.45,349.789z"/>
<path fill-rule="evenodd" clip-rule="evenodd" fill="#0B4063" d="M558.379,348.679c3.148,9.446,0.76,18.029-4.086,26.23
	c-0.318,5.473-1.685,10.612-4.839,15.182c-11.29-0.49-18.022-6.763-23.074-16.512c-4.654-8.981-10.752-17.216-16.213-25.779
	c-2.029-2.089-2.21-4.909-2.936-7.502c-2.841-10.151-5.374-20.446-13.871-27.774c-0.573-0.494-0.763-1.203-0.539-1.971
	c5.428-0.691,10.476-3.209,16.022-3.333c1.394,0.447,2.625,1.133,3.809,2.036c13.229,10.085,19.219,10.11,32.447,0.234
	c2.842-1.644,5.148,0.795,7.746,1.017c0.14,0.687,0.643,1.719,0.367,2.007c-5.613,5.863-3.862,12.765-2.756,19.509
	c0.701,4.27,1.786,8.476,2.68,12.714C553.737,347.593,555.134,349.355,558.379,348.679z"/>
<path fill-rule="evenodd" clip-rule="evenodd" fill="#EBCFA0" d="M545.098,309.49c-3.918,6.908-12.116,10.64-19.783,8.414
	c-6.467-1.878-12.245-5.178-16.472-10.686c9.597-3.521,14.968-18.183,9.97-27.06c-0.518-0.92-1.164-1.196-2.071-1.449
	c-6.02-1.676-5.962-6.82-5.966-11.455c-0.004-4.006,2.695-5.255,5.79-2.529c4.257,3.751,5.843,1.379,7.345-2.302
	c1.575-3.862,2.918-7.83,4.687-11.599c3.12-6.654,6.494-8.034,13.083-5.08c6.958,3.119,13.632,6.785,21.747,5.639
	c2.572-0.364,4.007,1.458,3.468,4.233c-2.216,11.395-3.922,22.945-8.662,33.663c-3.072,6.947-8.264,11.809-15.578,14.332
	c-1.241,0.428-3.708-0.733-3.553,2.062c0.115,2.072,1.841,2.46,3.429,2.936C543.397,308.871,544.244,309.195,545.098,309.49z"/>
<path fill-rule="evenodd" clip-rule="evenodd" fill="#05334C" d="M492.82,310.553c9.289,6.267,11.893,16.41,14.999,26.19
	c1.135,3.574,1.585,7.366,2.348,11.058c-5.829,3.215-11.658,6.43-17.487,9.646c-1.401,1.095-2.803,2.191-4.204,3.287
	c-1.55-4.137-4.766-7.197-7.041-10.872c-7.861-12.699-6.487-25.924,3.682-35.704C487.346,312.012,489.896,310.992,492.82,310.553z"
	/>
<path fill-rule="evenodd" clip-rule="evenodd" fill="#E9CFA2" d="M274.08,257.907c-3.409-1.386-4.812-5.511-8.639-6.324
	c0.317-1.417,1.165-2.523,2.098-3.579c5.28,0.685,9.516,3.062,12.392,7.643C278.535,257.835,276.168,257.512,274.08,257.907z"/>
<path fill-rule="evenodd" clip-rule="evenodd" fill="#A6A4D0" d="M267.539,248.004c0.191,1.715,0.414,3.447-2.098,3.578
	c-1.016-0.04-2.033-0.08-3.047-0.121c-0.903-0.479-2.106-0.84-1.944-2.111c0.134-1.052,1.224-1.046,2.082-1.163
	c1.365-0.186,2.728-0.381,4.095-0.571C266.933,247.746,267.235,247.875,267.539,248.004z"/>
<path fill-rule="evenodd" clip-rule="evenodd" fill="#F8F1E8" d="M274.08,257.907c1.95-0.753,3.901-1.506,5.851-2.26
	c0.296,0.19,0.593,0.381,0.89,0.572c-1.042,2.527-3.496,2.258-5.541,2.799C274.879,258.647,274.479,258.276,274.08,257.907z"/>
<path fill-rule="evenodd" clip-rule="evenodd" fill="#45443E" d="M251.468,268.975c-0.214,2.013,1.742,1.822,2.761,2.612
	c-3.93,2.225-3.93,2.225-3.932-2.62C250.69,268.609,251.081,268.612,251.468,268.975z"/>
<path fill-rule="evenodd" clip-rule="evenodd" fill="#594F46" d="M257.13,279.215c-1.652,0.797-3.054,0.743-4.915-1.273
	C254.404,277.81,255.952,276.917,257.13,279.215z"/>
<path fill-rule="evenodd" clip-rule="evenodd" fill="#5D564B" d="M253.237,261.351c0.564-2.129,1.128-4.259,1.774-6.699
	c1.362,2.326,0.478,4.382,0.465,6.392c-0.282,0.074-0.558,0.166-0.827,0.278c-0.354,0.561-0.688,0.521-1.005-0.033L253.237,261.351z
	"/>
<path fill-rule="evenodd" clip-rule="evenodd" fill="#5E5A4E" d="M251.468,268.975c-0.39-0.003-0.78-0.005-1.17-0.007
	c-0.07-0.396-0.139-0.792-0.208-1.189c0.522-1.038,1.045-2.075,1.568-3.113c0.244,0.025,0.481-0.008,0.708-0.101
	c0.419,0.544,0.446,1.108,0.08,1.69C252.557,267.318,252.354,268.269,251.468,268.975z"/>
<path fill-rule="evenodd" clip-rule="evenodd" fill="#48453F" d="M252.445,266.254c-0.027-0.563-0.053-1.126-0.08-1.69
	c0.426-1.092,0.853-2.184,1.279-3.275c0.335,0.005,0.67,0.016,1.004,0.033C254.712,263.322,253.804,264.889,252.445,266.254z"/>
<path fill-rule="evenodd" clip-rule="evenodd" fill="#EBD0A4" d="M257.787,261.098c-0.086-5.005,2.628-7.033,6.344-7.27
	c4.138-0.264,6.364,2.594,6.365,6.445c0,3.582-2.096,6.356-5.968,6.316C260.772,266.55,258.029,264.662,257.787,261.098z"/>
<path fill-rule="evenodd" clip-rule="evenodd" fill="#9796E5" d="M251.662,249.282c-2.211,1.491-3.687,1.454-5.393,0.579
	C247.643,247.732,249.193,247.973,251.662,249.282z"/>
<path fill-rule="evenodd" clip-rule="evenodd" fill="#565248" d="M248.33,262.28c-1.317-0.33-2.28-1.142-2.114-2.591
	c0.158-1.371,1.105-2.34,2.57-2.163c1.368,0.166,2.359,1.098,2.181,2.564C250.802,261.457,249.879,262.295,248.33,262.28z"/>
<path fill-rule="evenodd" clip-rule="evenodd" fill="#FEFEFE" d="M555,501.659c-2.177,28.778-4.354,57.555-6.532,86.333
	c-2.492,2.06-5.405,1.846-8.268,1.335c-1.792-0.317-3.689-0.938-2.75-3.55c0.892-16.943,2.978-33.852,2.13-50.847
	c-0.43-8.612-0.773-17.3-3.623-25.619c-0.948-2.769-2.114-5.365-3.908-7.673C539.7,501.199,547.35,501.159,555,501.659z"/>
<path fill-rule="evenodd" clip-rule="evenodd" fill="#DBDDDE" d="M304.967,600.039c-0.014-8.122-0.528-16.263,0.796-24.342
	c-0.781,6.7,2.413,12.922,2.344,19.543C308.082,597.578,307.914,599.68,304.967,600.039z"/>
<path fill-rule="evenodd" clip-rule="evenodd" fill="#E1E1E2" d="M256.952,587.978c4.253,2.96,8.725-1.553,13.415,0.613
	c-4.336,4.186-5.11,11.634-12.685,12.553C256.515,596.806,256.964,592.379,256.952,587.978z"/>
<path fill-rule="evenodd" clip-rule="evenodd" fill="#FCFCFC" d="M547.365,602.138c-1.979,4.47,0.114,9.146-0.809,14.313
	c-4.792-3.154-6.865-8.17-10.066-12.188c1.488-3.974,3.697-7.942,0.09-11.954c0.006-0.71,0.013-1.42,0.019-2.13
	c0.515-1.278,1.832-1.778,2.561-0.945C542.538,593.101,546.654,596.56,547.365,602.138z"/>
<path fill-rule="evenodd" clip-rule="evenodd" fill="#E3E2E2" d="M547.365,602.138c-2.641-3.885-5.266-7.781-7.933-11.648
	c-0.779-1.128-1.815-0.888-2.835-0.311c-0.028-1.528-0.515-3.145,0.854-4.401c2.89,4.629,7.43,1.052,11.017,2.215
	c-0.03,4.701-0.06,9.402-0.091,14.104c-0.001,0-0.501,0.161-0.501,0.161L547.365,602.138z"/>
<path fill-rule="evenodd" clip-rule="evenodd" fill="#E4E2DF" d="M536.58,592.309c5.37,4.898,5.368,5.193-0.09,11.954
	c-0.454-0.176-0.908-0.351-1.362-0.525C535.612,599.928,536.096,596.118,536.58,592.309z"/>
<path fill-rule="evenodd" clip-rule="evenodd" fill="#C1C7CB" d="M555.086,621.655c-3.908,0.166-3.724-1.905-3.136-4.456
	C553.686,618.227,554.391,619.715,555.086,621.655z"/>
<path fill-rule="evenodd" clip-rule="evenodd" fill="#E7E8EB" d="M293.697,631.793c-0.806,3.04-3.323,2.059-5.332,2.269
	C289.484,631.757,292.062,632.883,293.697,631.793z"/>
<path fill-rule="evenodd" clip-rule="evenodd" fill="#F1EBF1" d="M247.972,627.504c-0.061,0.225-0.063,0.45-0.006,0.677
	c-1.943,0.843-3.848,1.884-7.278,1.272C243.728,628.165,245.712,627.385,247.972,627.504z"/>
<path fill-rule="evenodd" clip-rule="evenodd" fill="#9C5A90" d="M439.476,130.723c0.483-6.079,1.588-11.728,6.159-15.974
	c4.53-4.208,10.286-3.055,12.817,2.483c3.809,8.334-2.326,25.479-10.519,29.778c-2.576,1.351-3.612-0.034-4.68-1.906
	C440.673,140.581,440.083,135.551,439.476,130.723z"/>
<path fill-rule="evenodd" clip-rule="evenodd" fill="#9C5A90" d="M386.625,131.354c-0.273-6.787,1.334-12.419,6.108-16.783
	c4.396-4.019,9.875-2.847,12.468,2.556c3.988,8.311-2.281,25.851-10.532,29.904c-2.639,1.296-3.699-0.098-4.665-2.001
	C387.749,140.583,386.458,135.887,386.625,131.354z"/>
<path fill-rule="evenodd" clip-rule="evenodd" fill="#3C4E62" d="M698.162,449.227c0.906-5.139,4.819-2.088,7.339-2.561
	c2.92-0.547,2.298,1.979,2.496,3.652C704.568,451.303,701.161,452.107,698.162,449.227z"/>
<path fill-rule="evenodd" clip-rule="evenodd" fill="#3C4E62" d="M689.422,448.135c-0.348-1.088-1.565-2.174-0.294-3.313
	c1.558-1.395,2.627,0.904,4.256,0.741c1.176-0.119,1.92,1.401,0.409,2.572C692.336,448.71,690.878,449.15,689.422,448.135z"/>
<path fill-rule="evenodd" clip-rule="evenodd" fill="#3C4E62" d="M661.015,439.393c1.214,0.728,0.092,1.456,0.001,2.186
	c-1.581,1.786-2.01,0.129-2.547-0.904c-0.47-0.904-0.117-1.946,0.567-2.4C660.058,437.597,660.172,439.294,661.015,439.393z"/>
<path fill-rule="evenodd" clip-rule="evenodd" fill="#3C4E62" d="M682.863,444.852c1.246-0.819,2.575-0.889,3.68,0.075
	c0.78,0.683,0.547,1.559-0.399,2.115C684.552,447.061,682.964,447.068,682.863,444.852z"/>
<path fill-rule="evenodd" clip-rule="evenodd" fill="#3C4E62" d="M678.493,444.852c1.094-0.798,2.188-0.793,3.28,0.004
	C680.677,448.301,679.585,446.556,678.493,444.852z"/>
<path fill-rule="evenodd" clip-rule="evenodd" fill="#3C4E62" d="M675.216,443.76c1.58-1.334,1.617,0.413,2.187,1.096
	C675.657,446.519,675.435,445.142,675.216,443.76z"/>
<path fill-rule="evenodd" clip-rule="evenodd" fill="#FCFCFB" d="M549.454,390.091c0.668-5.36,2.265-10.426,4.839-15.181
	c3.019,4.746,2.092,10.392,3.508,15.51c0.545,1.972-0.833,2.073-2.223,1.664C553.519,391.479,551.493,390.761,549.454,390.091z"/>
<path fill-rule="evenodd" clip-rule="evenodd" fill="#FCF8F2" d="M543.422,263.479c-1.938-0.111-4.104,0.073-4.176-2.038
	c-0.088-2.599,2.306-2.342,4.059-2.289c1.483,0.045,3.771-0.646,3.827,1.794C547.191,263.496,544.869,263.262,543.422,263.479z"/>
<path fill-rule="evenodd" clip-rule="evenodd" fill="#FDFCFA" d="M560.973,266.719c-1.683-0.607-3.949-0.657-4.38-3.036
	c-0.195-1.072,0.999-1.367,1.905-1.256c1.778,0.218,3.703,0.595,4.461,2.379C563.522,266.13,562.202,266.515,560.973,266.719z"/>
<path fill-rule="evenodd" clip-rule="evenodd" fill="#333836" d="M545.403,290.632c1.895,0.103,3.789,0.205,6.144,0.333
	c-2.617,2.534-4.994,1.471-7.348,0.736C544.04,290.715,544.244,290.136,545.403,290.632z"/>
<path fill-rule="evenodd" clip-rule="evenodd" fill="#393C3A" d="M542.129,271.153c-0.534,0.017-1.261-0.425-1.364-1.426
	c-0.131-1.273,0.616-1.906,1.852-1.894c1.022,0.011,1.622,0.62,1.575,1.621C544.147,270.391,543.634,271.064,542.129,271.153z"/>
<path fill-rule="evenodd" clip-rule="evenodd" fill="#504E46" d="M556.928,275.448c-1.067,0.013-1.733-0.651-1.675-1.578
	c0.056-0.885,0.761-1.544,1.781-1.612c1.126-0.076,1.704,0.701,1.664,1.581C558.659,274.716,557.97,275.404,556.928,275.448z"/>
<path fill-rule="evenodd" clip-rule="evenodd" fill="#44433E" d="M551.612,283.87c0.008-1.328,0.017-2.657,0.025-3.986
	c0.376-0.359,0.748-0.355,1.116,0.014c-0.043,1.808,2.241,4.06-1.005,5.254C551.164,284.782,551.119,284.354,551.612,283.87z"/>
<path fill-rule="evenodd" clip-rule="evenodd" fill="#656053" d="M552.753,279.898c-0.372-0.005-0.744-0.009-1.116-0.014
	c-1.299-1.196-1.052-2.826-1.219-4.34c0.41-0.387,0.83-0.378,1.257-0.031C552.035,276.974,552.394,278.436,552.753,279.898z"/>
<path fill-rule="evenodd" clip-rule="evenodd" fill="#756A5A" d="M551.676,275.513c-0.419,0.01-0.838,0.021-1.257,0.031
	c-0.938-1.171-1.3-2.389-0.319-3.768C551.38,272.743,551.632,274.084,551.676,275.513z"/>
<path fill-rule="evenodd" clip-rule="evenodd" fill="#41443F" d="M551.612,283.87c0.045,0.428,0.09,0.855,0.136,1.283
	c-1.541,0.459-3.056,0.492-4.701-0.154C548.468,283.614,550.224,284.534,551.612,283.87z"/>
<path fill-rule="evenodd" clip-rule="evenodd" fill="#5F574B" d="M545.403,290.632c-0.401,0.356-0.802,0.713-1.204,1.069
	c-0.996-0.41-3.067-0.517-2.378-1.744C542.524,288.708,544.284,289.736,545.403,290.632z"/>
<path fill-rule="evenodd" clip-rule="evenodd" fill="#3F3F3B" d="M261.908,257.694c1.339,0.133,2.449,0.608,2.36,2.267
	c-0.066,1.248-0.875,2.047-2.039,2.137c-1.526,0.118-2.289-0.859-2.36-2.332C259.803,258.416,260.629,257.851,261.908,257.694z"/>
<text transform="matrix(1 0 0 1 39.1162 213.0977)" font-family="'MyriadPro-Bold'" font-size="21">&lt; / C O D E &gt;</text>
<text transform="matrix(1 0 0 1 713.583 214.5981)" font-family="'MyriadPro-Bold'" font-size="36">&lt; / &gt;</text>
</svg>
