<svg height='300px' width='300px'  fill="#FFFFFF" xmlns="http://www.w3.org/2000/svg" data-name="Layer 1" viewBox="0 0 100 100" x="0px" y="0px"><title>website, development,</title><rect x="78" y="8" width="2" height="2"></rect><rect x="83" y="8" width="2" height="2"></rect><rect x="88" y="8" width="2" height="2"></rect><rect x="4" y="32" width="2" height="2"></rect><path d="M4,4V30H6V14H94V70a7,7,0,0,1-7,7H56v2H87a9,9,0,0,0,9-9V4H4Zm2,8V6H94v6H6Z"></path><rect x="11" y="20" width="27" height="2"></rect><rect x="18" y="26" width="20" height="2"></rect><rect x="11" y="26" width="5" height="2"></rect><path d="M54,56H71a8,8,0,0,0,1-15.93V38a4,4,0,0,0-4-4H61v2h7a2,2,0,0,1,2,2v6a2,2,0,0,1-2,2H32a2,2,0,0,1-2-2V38a2,2,0,0,1,2-2H59V34H32a4,4,0,0,0-4,4v6a4,4,0,0,0,4,4H68a4,4,0,0,0,4-4V42.09A6,6,0,0,1,71,54H54a5,5,0,0,0-5,5V71H46v6H13a7,7,0,0,1-7-7V36H4V70a9,9,0,0,0,9,9H46V92a4,4,0,0,0,8,0V71H51V59A3,3,0,0,1,54,56ZM52,92a2,2,0,0,1-4,0V73h4V92Z"></path><path d="M29,49v7a3,3,0,0,0,6,0V54a1,1,0,0,1,2,0v7a3,3,0,0,0,6,0V49H41V61a1,1,0,0,1-2,0V54a3,3,0,0,0-6,0v2a1,1,0,0,1-2,0V49H29Z"></path><path d="M29,68a3,3,0,0,0,6,0V64a3,3,0,0,0-6,0v4Zm2-4a1,1,0,0,1,2,0v4a1,1,0,0,1-2,0V64Z"></path></svg>